<?xml version="1.0" standalone="no"?>
<!DOCTYPE svg PUBLIC "-//W3C//DTD SVG 20010904//EN"
 "http://www.w3.org/TR/2001/REC-SVG-20010904/DTD/svg10.dtd">
<svg version="1.0" xmlns="http://www.w3.org/2000/svg"
 width="1000.000000pt" height="1000.000000pt" viewBox="0 0 1000.000000 1000.000000"
 preserveAspectRatio="xMidYMid meet">

<g transform="translate(0.000000,1000.000000) scale(0.100000,-0.100000)"
fill="#000000" stroke="none">
<path d="M0 5000 l0 -5000 5000 0 5000 0 0 5000 0 5000 -5000 0 -5000 0 0
-5000z m6684 4124 c9 -8 16 -21 16 -28 0 -18 -55 -101 -77 -117 -25 -18 -38
-40 -22 -37 12 3 15 -2 18 -37 0 -8 6 -15 12 -15 20 0 38 -28 35 -56 -6 -58
-57 -162 -108 -222 -21 -24 -38 -47 -38 -53 0 -8 -27 -43 -61 -79 -20 -22 -20
-65 1 -65 8 0 18 -4 23 -10 4 -6 10 -5 15 3 6 9 16 10 32 4 l24 -9 -29 -16
c-24 -13 -26 -16 -11 -17 19 0 19 -1 2 -13 -15 -11 -13 -13 21 -14 21 0 42 4
46 11 6 8 10 8 14 -1 3 -10 10 -10 25 -2 11 6 18 7 15 2 -3 -5 -1 -15 4 -23 8
-13 10 -13 19 0 6 9 10 10 10 3 0 -6 -7 -18 -15 -27 -8 -8 -15 -22 -15 -30 0
-22 30 -20 31 2 1 16 2 16 6 0 2 -10 11 -18 19 -18 8 0 14 -4 14 -9 0 -17 60
-32 82 -20 18 10 18 9 8 -10 -6 -12 -15 -21 -20 -21 -6 0 -10 -6 -10 -14 0
-19 -95 -141 -204 -261 -131 -143 -175 -208 -65 -93 238 248 643 713 634 728
-3 5 -1 10 4 10 13 0 24 12 104 104 46 52 62 64 72 56 10 -8 19 -8 33 -1 16 9
21 7 25 -10 3 -11 0 -22 -7 -25 -7 -3 -11 -15 -10 -27 1 -12 3 -25 3 -29 1 -5
10 -8 20 -8 10 0 21 -7 25 -15 4 -12 11 -13 32 -5 37 14 54 -2 30 -29 -10 -11
-24 -17 -32 -14 -8 3 -14 0 -14 -6 0 -7 14 -10 36 -8 30 4 37 1 46 -19 12 -26
31 -34 22 -9 -5 13 -3 13 21 1 15 -8 33 -12 41 -9 8 3 11 -2 8 -14 -4 -14 2
-23 21 -31 29 -13 29 -12 -13 -62 -7 -8 -36 -46 -63 -83 -41 -55 -48 -71 -39
-83 7 -8 19 -14 26 -14 8 0 14 -9 14 -21 0 -18 4 -20 30 -14 37 8 41 -14 8
-39 -13 -9 -18 -15 -12 -12 7 3 17 0 23 -8 6 -7 22 -12 36 -10 14 1 25 -2 25
-8 0 -6 -7 -8 -15 -4 -13 5 -14 2 -3 -17 l12 -22 10 28 c11 29 21 34 32 15 4
-6 2 -14 -5 -16 -8 -3 -9 -8 -1 -17 8 -10 7 -13 -4 -11 -8 0 -16 -3 -18 -8 -2
-5 9 -10 25 -10 15 -1 27 2 27 7 0 4 5 5 11 1 6 -3 30 13 54 36 32 32 53 43
75 44 18 1 34 -2 37 -7 2 -4 9 -5 14 -2 5 4 9 -3 9 -14 0 -24 0 -24 34 -11 36
13 32 -5 -4 -20 -34 -14 -31 -30 5 -30 14 0 23 -5 22 -12 -2 -7 1 -4 6 8 6 11
17 26 27 32 14 9 16 7 12 -14 -2 -13 -8 -21 -12 -19 -9 6 -25 -14 -17 -21 2
-2 16 0 31 6 19 7 25 7 21 -1 -4 -5 -18 -15 -32 -20 -21 -8 -23 -12 -13 -24
11 -14 15 -14 31 1 10 9 23 13 30 8 7 -4 10 -3 6 3 -4 6 1 17 10 24 12 10 14
10 9 2 -4 -8 -2 -13 5 -13 9 0 9 -3 0 -14 -13 -15 -4 -49 10 -40 19 12 35 -11
28 -41 -4 -16 -7 -24 -8 -17 -1 10 -5 10 -20 0 -29 -18 -17 -26 39 -24 27 0
50 0 50 -1 0 -1 -6 -8 -13 -15 -7 -7 -36 -42 -65 -78 -29 -36 -58 -72 -65 -80
-6 -8 -11 -17 -9 -20 1 -3 -2 -5 -7 -5 -6 0 -15 -5 -22 -12 -8 -8 -6 -14 9
-22 17 -9 23 -8 30 4 7 13 10 11 21 -11 6 -15 8 -30 4 -33 -8 -6 -33 -56 -33
-66 0 -2 11 6 23 18 13 12 23 26 23 31 -1 5 5 11 12 13 6 3 12 -1 12 -7 0 -7
9 -9 23 -6 14 4 11 1 -7 -8 l-30 -14 40 -6 c58 -10 78 -26 32 -26 -37 0 -57
-13 -38 -25 6 -4 18 -1 27 6 13 11 17 10 29 -6 8 -10 14 -25 14 -33 0 -11 8
-13 33 -9 19 3 40 1 48 -4 10 -6 10 -9 2 -9 -7 0 -13 -7 -13 -15 0 -9 9 -15
25 -15 18 0 25 -5 25 -20 0 -15 -7 -20 -26 -20 -20 0 -24 -4 -20 -18 4 -12
-10 -34 -49 -72 -30 -29 -52 -57 -49 -62 3 -4 -2 -8 -10 -8 -9 0 -16 -4 -16
-10 0 -5 11 -10 25 -10 14 0 25 5 25 10 0 6 4 10 9 10 4 0 7 -19 5 -42 -2 -24
-1 -37 2 -30 3 6 13 12 22 11 11 0 12 -2 5 -6 -24 -9 -13 -25 13 -19 18 5 24
3 19 -5 -5 -8 -1 -9 14 -4 12 4 21 2 21 -4 0 -6 -10 -11 -22 -12 l-23 0 23
-10 c13 -5 27 -7 32 -4 9 6 21 -20 16 -37 -1 -7 -1 -10 1 -5 3 4 11 7 19 7 8
0 14 5 14 11 0 8 5 8 15 -1 8 -7 15 -19 15 -27 0 -8 14 -19 30 -25 23 -7 28
-13 20 -23 -5 -6 -7 -15 -3 -18 3 -4 0 -7 -8 -7 -12 0 -12 -2 0 -9 18 -12 6
-32 -82 -133 -35 -40 -100 -120 -145 -178 -45 -58 -101 -129 -124 -159 -73
-92 -328 -379 -465 -522 -84 -89 -139 -156 -158 -193 -16 -32 -33 -59 -37 -62
-4 -3 -8 -13 -8 -22 0 -10 -9 -23 -21 -30 -14 -9 -19 -20 -16 -33 4 -16 1 -18
-20 -13 -13 4 -48 19 -76 35 -29 16 -58 29 -64 29 -7 0 -24 10 -39 23 -14 12
-34 22 -43 23 -10 1 -33 8 -51 17 -18 9 -37 14 -43 10 -5 -3 -7 -1 -3 5 3 6
-3 14 -15 17 -19 7 -20 7 -2 21 10 8 14 14 8 13 -26 -4 -34 4 -35 34 0 17 -1
44 -2 59 0 25 13 47 117 187 14 19 25 40 25 48 0 7 4 13 10 13 5 0 7 7 4 15
-5 11 -2 13 10 9 11 -4 31 10 64 47 26 29 83 88 127 132 67 66 72 73 31 43
l-49 -36 -21 29 c-12 17 -29 32 -39 35 -10 2 -21 14 -24 25 -3 11 -15 22 -27
24 -20 3 -20 4 4 15 24 10 24 11 3 11 -13 1 -23 6 -23 11 0 6 -9 10 -20 10
-21 0 -79 56 -80 76 0 6 -7 17 -15 24 -9 7 -14 19 -11 25 2 7 -2 22 -10 34
-17 23 -11 41 12 41 8 0 22 16 30 35 8 19 18 35 23 35 6 0 26 19 45 43 37 45
40 87 7 87 -14 0 -14 2 -1 10 12 8 11 10 -7 10 -28 0 -74 45 -67 65 5 11 -1
15 -20 15 -14 0 -26 5 -26 11 0 6 -9 8 -20 4 -11 -3 -20 -3 -21 2 -2 27 -9 47
-17 52 -5 3 -12 13 -15 21 -4 12 -6 11 -6 -2 -1 -21 -16 -24 -27 -6 -4 6 -2
14 4 16 7 2 12 10 12 17 0 10 -9 11 -36 5 -20 -5 -43 -6 -50 -3 -8 3 -46 -26
-92 -71 -43 -42 -84 -76 -90 -76 -7 0 -12 14 -12 33 0 25 15 52 66 117 37 47
71 90 76 97 6 7 4 14 -3 19 -8 4 -9 3 -5 -4 5 -8 -1 -12 -15 -12 -18 0 -20 3
-11 12 17 17 15 28 -7 28 -25 0 -49 29 -32 39 7 5 -1 8 -19 8 -17 0 -36 7 -43
17 -11 16 -20 9 -90 -63 -42 -44 -77 -84 -77 -89 0 -12 -51 -58 -72 -65 -10
-4 -18 -2 -18 4 0 7 -10 9 -26 5 -23 -6 -24 -5 -13 15 9 17 8 23 -2 30 -10 6
-15 2 -17 -14 -4 -26 -144 -167 -167 -167 -44 0 19 124 86 167 52 34 59 42 53
58 -3 8 -14 17 -25 20 -11 4 -17 10 -14 15 10 16 -13 20 -25 5 -14 -17 -55
-21 -45 -5 4 6 11 8 16 5 5 -4 9 -1 9 4 0 6 -10 11 -22 12 -13 0 -17 3 -10 6
22 9 13 30 -19 43 -26 11 -32 11 -40 -1 -7 -11 -9 -11 -9 4 0 9 -8 17 -17 17
-21 1 -55 24 -48 34 3 3 -1 1 -8 -6 -6 -7 -19 -18 -27 -26 -11 -10 -11 -12 -1
-6 9 4 12 3 8 -4 -10 -14 -49 -3 -69 21 -10 11 -18 15 -18 8 0 -7 -4 -9 -10
-6 -14 9 -12 21 6 39 14 15 14 16 -4 16 -11 0 -23 6 -26 13 -3 6 -4 -5 0 -26
5 -34 1 -43 -33 -80 -21 -23 -48 -54 -60 -69 -26 -35 -53 -37 -53 -4 0 23 69
127 104 155 13 11 14 16 5 22 -10 6 -10 11 0 23 7 9 11 23 7 31 -8 22 -25 18
-19 -5 4 -16 2 -19 -11 -14 -9 3 -16 10 -16 15 0 4 -8 5 -17 2 -12 -5 -15 -2
-10 10 3 8 1 30 -6 47 -10 26 -16 30 -41 28 -18 -2 -31 2 -34 11 -3 8 0 11 7
7 6 -4 11 -2 11 3 0 15 27 14 33 -1 3 -8 6 -7 6 4 1 21 -38 35 -49 18 -13 -20
-23 7 -16 43 4 21 37 66 97 132 49 55 144 168 211 250 66 83 131 158 143 168
13 9 56 57 96 105 41 48 84 97 96 109 13 12 23 28 23 35 0 16 -159 -141 -307
-305 -74 -81 -119 -123 -124 -116 -4 8 -11 4 -19 -11 -10 -18 -10 -21 2 -14
10 6 10 4 -1 -10 -11 -13 -16 -14 -22 -4 -9 14 -9 14 -13 -21 -2 -14 -28 -48
-64 -83 -34 -33 -62 -64 -62 -69 0 -5 -4 -9 -10 -9 -5 0 -10 9 -10 20 0 11 7
20 15 20 8 0 15 7 15 15 0 8 -8 15 -18 15 -10 0 -28 8 -41 17 -14 9 -22 12
-18 7 3 -5 -8 -17 -24 -26 -16 -10 -29 -13 -29 -7 0 5 7 12 15 15 11 4 12 11
6 23 -7 12 -4 19 12 28 22 12 22 12 -5 13 -19 0 -29 -6 -34 -22 -6 -19 -8 -20
-18 -6 -11 15 -13 15 -24 -3 -16 -25 -32 -25 -25 1 3 11 9 17 14 14 5 -3 9 3
9 12 0 14 -3 15 -12 6 -17 -17 -28 -15 -28 5 0 15 -2 14 -15 -3 -15 -19 -15
-19 -8 1 3 11 11 23 16 26 5 4 -1 10 -14 14 -17 6 -26 3 -34 -10 -5 -9 -26
-34 -46 -55 -20 -21 -42 -52 -49 -69 -7 -17 -58 -80 -113 -139 -55 -59 -106
-117 -115 -130 -8 -13 -21 -21 -28 -18 -8 3 -14 -1 -14 -11 0 -9 -7 -23 -15
-32 -8 -9 -27 -31 -41 -49 -14 -17 -30 -30 -34 -27 -5 3 -11 1 -15 -5 -3 -5
-1 -10 6 -10 6 0 0 -12 -14 -26 -14 -14 -31 -23 -37 -19 -5 3 -10 0 -10 -8 0
-8 -7 -18 -16 -21 -9 -3 -14 -13 -11 -20 3 -8 -2 -20 -11 -28 -13 -11 -14 -11
-7 1 5 10 4 12 -3 7 -7 -4 -12 -15 -12 -25 0 -10 -9 -26 -20 -36 -27 -24 -25
-35 5 -35 26 0 33 -14 13 -26 -7 -5 -8 -3 -3 6 5 9 4 11 -4 6 -6 -4 -9 -11 -6
-16 5 -8 -43 -71 -96 -125 -72 -74 -119 -130 -119 -143 0 -8 -6 -12 -14 -9 -8
3 -24 -6 -37 -20 -13 -15 -18 -23 -10 -18 10 5 12 4 7 -4 -4 -6 -11 -9 -15 -7
-4 3 -36 -24 -71 -59 -35 -35 -68 -61 -73 -58 -6 3 -7 1 -4 -4 4 -6 0 -16 -8
-23 -9 -7 -38 -40 -67 -74 -42 -51 -36 -47 36 27 56 56 95 87 109 87 16 0 18
3 8 9 -11 7 -11 10 0 17 7 4 14 3 17 -4 2 -7 8 -12 13 -12 4 0 6 7 3 15 -4 9
0 15 10 15 9 0 15 3 15 8 -3 18 2 32 12 32 13 0 1 -42 -15 -52 -6 -4 8 -6 31
-5 29 2 44 -2 48 -11 8 -22 -4 -33 -24 -20 -20 12 -56 4 -47 -11 4 -5 0 -11
-6 -14 -10 -4 -11 -7 0 -18 10 -11 14 -11 25 0 10 11 10 13 0 7 -14 -8 -16 -5
-7 17 9 24 42 9 37 -16 -4 -19 -3 -20 7 -5 6 10 17 15 27 11 11 -4 14 -2 11 8
-3 8 4 22 14 31 11 9 19 20 18 24 -1 5 3 10 9 12 6 2 8 -3 5 -12 -4 -11 -1
-16 10 -16 9 0 16 -7 16 -15 0 -8 3 -14 8 -14 22 4 42 -2 37 -11 -4 -6 -15 -8
-26 -5 -11 4 -19 2 -19 -4 0 -6 3 -10 8 -9 4 1 22 -3 40 -9 32 -12 45 -43 17
-43 -8 0 -15 7 -15 16 0 14 -2 15 -17 3 -15 -12 -16 -12 -8 1 4 8 -1 6 -12 -5
-12 -11 -18 -23 -14 -27 5 -6 50 0 101 13 9 2 14 -2 12 -10 -2 -11 0 -12 11
-2 12 9 16 8 20 -3 4 -9 -3 -16 -19 -20 -13 -4 -24 -11 -24 -16 0 -17 43 -11
69 9 24 18 57 18 45 0 -3 -5 -10 -7 -15 -4 -5 4 -9 -2 -9 -12 0 -10 -40 -61
-89 -113 -49 -52 -87 -98 -84 -103 2 -4 -1 -6 -9 -5 -7 2 -12 -3 -10 -10 1 -8
-7 -16 -18 -19 -24 -6 -17 -23 11 -23 10 0 19 -5 19 -11 0 -6 -9 -8 -20 -4
-11 3 -20 2 -20 -3 0 -5 10 -12 23 -16 16 -4 19 -8 9 -15 -11 -6 -10 -10 3
-15 10 -3 23 -2 30 4 7 6 21 7 30 3 12 -4 16 -3 12 4 -4 6 1 13 11 15 21 6 55
-15 44 -26 -4 -5 0 -7 8 -6 32 5 39 -1 46 -35 3 -19 10 -35 16 -35 5 0 6 -4 3
-10 -3 -5 -2 -10 3 -10 6 0 8 -8 5 -18 -4 -18 18 -44 41 -48 6 -1 21 -6 34
-11 23 -9 23 -10 -31 -85 -30 -42 -109 -145 -177 -229 -114 -145 -99 -139 38
14 25 28 51 47 63 47 18 0 19 -2 9 -15 -10 -12 -10 -15 1 -16 8 -1 21 -2 29
-3 8 0 14 -7 13 -13 -2 -8 8 -13 27 -13 17 0 30 -4 30 -10 0 -13 27 -13 32 1
2 7 11 7 28 0 19 -7 20 -10 7 -10 -11 -1 -15 -5 -11 -13 5 -8 -2 -9 -23 -5
-39 8 -48 -1 -26 -25 20 -23 25 -46 9 -45 -47 1 -56 -4 -54 -28 2 -23 28 -37
28 -15 0 5 7 7 15 4 8 -4 15 -1 15 5 0 6 7 11 15 11 9 0 12 -6 9 -15 -5 -11
-2 -13 10 -9 19 7 21 31 4 36 -19 7 29 30 68 33 35 4 48 -12 37 -42 -7 -17 -8
-17 57 3 15 5 22 0 29 -17 10 -26 -4 -53 -22 -42 -5 3 -7 1 -4 -4 4 -6 -25
-50 -63 -99 -83 -106 -89 -122 -31 -90 37 20 60 10 56 -25 -3 -20 0 -29 10
-29 8 0 15 -7 15 -16 0 -8 4 -13 9 -9 5 3 12 -3 15 -13 3 -10 15 -18 27 -19
11 -1 27 -7 35 -14 13 -10 12 -14 -3 -31 -17 -19 -17 -19 10 -13 18 5 27 3 27
-5 0 -7 7 -10 16 -6 11 4 9 -3 -8 -27 -12 -17 -26 -33 -30 -35 -4 -2 -8 -8 -8
-13 0 -6 -19 -38 -43 -72 -62 -89 -65 -97 -20 -49 24 26 44 39 48 33 3 -6 1
-11 -6 -11 -13 0 -3 -14 12 -16 5 -1 14 -2 19 -3 6 0 10 -10 10 -22 0 -14 -5
-19 -15 -16 -8 4 -17 2 -20 -3 -4 -6 1 -10 10 -10 14 0 13 -5 -5 -31 -39 -54
-16 -40 49 31 41 45 68 67 78 63 9 -4 13 0 11 10 -2 9 2 15 7 14 6 -1 10 -17
9 -34 -1 -37 -1 -37 27 -23 13 7 19 7 19 0 0 -5 7 -10 15 -10 8 0 14 -5 12
-11 -1 -6 4 -14 11 -16 6 -3 12 2 12 11 0 14 2 14 18 -1 13 -13 16 -23 10 -35
-5 -12 -5 -18 2 -18 8 0 14 19 12 41 0 3 26 36 58 73 55 64 114 116 132 116
20 0 5 -42 -30 -87 -22 -27 -52 -69 -67 -93 -34 -54 -56 -72 -71 -59 -12 10
-24 2 -24 -16 0 -14 42 -14 52 0 8 11 7 11 29 -30 15 -30 15 -31 -13 -59 -30
-29 -31 -50 -2 -26 12 11 17 11 23 1 5 -7 18 -10 33 -6 16 4 29 2 33 -5 5 -9
1 -10 -12 -6 -13 4 -25 0 -33 -9 -11 -13 -11 -16 0 -13 8 2 15 -4 17 -14 8
-32 -319 -390 -466 -511 -102 -83 -157 -145 -246 -272 -19 -27 -42 -60 -51
-72 -13 -18 -14 -23 -3 -24 14 0 -18 -16 -34 -17 -5 0 -46 -37 -92 -81 -45
-45 -87 -81 -92 -81 -5 0 -18 -8 -29 -18 -22 -20 -71 -52 -79 -52 -3 0 -5 7
-5 15 0 8 -5 15 -11 15 -5 0 -8 4 -5 9 4 5 -3 7 -14 4 -20 -5 -20 -4 -24 46
-2 22 -24 25 -28 4 -3 -13 -5 -11 -10 9 -3 15 -1 25 3 22 5 -3 9 0 9 5 0 6
-10 10 -22 8 -20 -2 -23 2 -22 29 2 39 -35 63 -60 39 -13 -13 -15 -13 -21 5
-3 11 -13 20 -21 20 -12 0 -12 4 -4 20 10 19 4 25 -22 21 -5 0 -8 6 -8 14 0 7
-8 19 -17 24 -13 7 -14 10 -4 11 14 0 61 48 61 63 0 4 6 7 14 7 18 0 192 184
260 275 100 134 128 175 119 175 -11 -1 -53 -36 -53 -46 0 -8 -88 -115 -105
-126 -16 -12 -25 -9 -19 6 3 8 -3 19 -15 26 -22 11 -29 2 -11 -16 15 -15 -5
-37 -28 -30 -17 6 -19 11 -12 36 5 18 4 30 -1 32 -7 2 -7 12 -1 28 12 30 -2
45 -38 44 -43 -1 -51 -4 -45 -14 3 -5 -3 -10 -14 -10 -12 0 -21 7 -21 15 0 8
-12 18 -27 21 -39 9 -55 24 -44 38 15 18 -3 39 -27 32 -18 -6 -20 -4 -16 19 3
17 1 24 -6 20 -16 -10 -23 22 -8 43 7 10 29 39 50 63 20 24 55 68 77 97 23 28
46 52 51 52 6 0 10 4 10 9 0 6 25 47 55 92 30 45 52 85 49 90 -3 5 0 9 6 9 7
0 10 7 6 15 -3 10 1 15 14 15 10 0 22 5 26 12 4 6 3 8 -4 4 -19 -12 -24 15 -6
30 13 10 15 17 7 20 -7 3 -10 13 -7 22 5 14 2 13 -10 -2 -9 -11 -16 -26 -16
-34 0 -12 -3 -12 -15 -2 -12 10 -13 16 -4 26 6 8 9 15 5 15 -10 2 -25 6 -33 9
-5 1 -12 2 -18 1 -5 -1 0 7 13 18 30 26 28 31 -7 21 -22 -6 -36 -3 -57 11 -16
10 -23 19 -16 19 20 0 14 41 -8 47 -11 3 -20 10 -20 15 0 6 6 8 14 5 25 -10
26 6 1 19 -40 21 -76 11 -112 -32 -23 -28 -33 -34 -33 -21 0 9 5 17 11 17 6 0
9 9 6 20 -3 11 0 23 6 28 7 4 23 20 37 36 l25 29 -25 -7 c-30 -9 -53 -9 -98
-1 -32 6 -33 7 -18 24 16 17 15 18 -11 13 -23 -4 -26 -3 -16 9 10 12 17 49 14
73 -1 5 -8 3 -16 -4 -10 -8 -12 -17 -5 -30 8 -14 5 -16 -15 -12 -24 4 -29 12
-26 39 1 8 -5 10 -14 7 -8 -3 -15 -1 -15 6 0 6 -5 8 -12 4 -9 -5 -9 -2 1 9 7
9 22 17 32 17 11 0 19 5 19 11 0 7 -7 8 -17 4 -10 -4 -28 -8 -40 -9 -19 -3
-21 0 -12 16 10 19 8 20 -28 14 -21 -3 -45 -2 -53 4 -12 8 -12 10 5 8 39 -3
55 2 55 17 0 17 -31 20 -47 4 -6 -6 -13 -7 -16 -2 -3 4 44 67 105 138 60 72
124 149 141 172 18 23 38 43 45 43 6 0 12 6 12 14 0 14 87 129 118 156 9 8 30
34 45 58 15 24 34 45 42 49 8 3 15 10 15 16 0 6 8 20 18 31 l17 21 -24 -20
c-14 -11 -41 -38 -60 -60 -20 -22 -57 -62 -83 -89 -44 -46 -49 -49 -73 -38
-14 7 -35 12 -45 12 -21 0 -23 7 -20 52 1 25 -11 40 -36 44 -7 1 -9 -6 -6 -19
3 -12 1 -18 -5 -14 -6 4 -13 0 -17 -8 -3 -8 -12 -15 -21 -15 -20 0 -19 10 3
26 16 12 16 14 -3 28 l-20 15 20 1 c13 0 16 3 8 8 -8 5 -9 13 -3 22 6 10 4 21
-7 33 -15 16 -15 17 -1 12 9 -4 19 -2 23 4 3 7 -2 11 -14 11 -11 0 -28 11 -39
25 -11 14 -23 25 -27 25 -4 0 -2 -7 5 -15 7 -9 8 -15 2 -15 -5 0 -8 -9 -5 -20
3 -11 12 -20 19 -20 8 0 14 -9 14 -20 0 -11 -7 -20 -15 -20 -8 0 -15 6 -15 13
0 8 -12 19 -26 26 -23 10 -26 9 -31 -9 -6 -23 -23 -27 -23 -6 0 7 -9 16 -20
19 -11 3 -20 11 -20 17 0 7 7 10 15 6 19 -7 19 -1 -1 18 -14 15 -14 16 5 16
21 0 30 25 11 32 -5 2 13 29 41 61 28 31 49 57 47 58 -29 7 -38 5 -38 -7 0
-21 -17 -17 -23 6 -3 11 0 20 6 20 7 0 6 4 -3 10 -9 6 -19 5 -28 -2 -10 -9
-17 -7 -30 5 -15 16 -15 17 5 17 11 0 24 7 27 16 5 13 2 15 -16 9 -44 -14 -81
-18 -75 -8 3 5 -9 15 -26 21 -32 12 -32 12 -118 -78 -83 -86 -109 -105 -109
-77 0 18 46 84 102 145 26 30 48 60 48 68 0 9 -4 13 -9 10 -12 -8 -51 28 -51
47 0 9 -7 17 -15 19 -13 2 -12 9 7 38 24 36 30 54 31 80 0 8 3 17 7 20 4 3 -7
12 -25 21 -31 14 -32 14 -27 -4 3 -14 1 -18 -9 -15 -7 2 -15 21 -16 41 -3 33
3 42 59 97 59 57 61 60 35 60 -22 0 -27 4 -27 25 0 16 -5 25 -13 23 -13 -3
-77 53 -77 67 0 5 7 17 17 27 9 10 13 21 9 26 -4 4 -14 -2 -22 -12 -8 -11 -14
-15 -14 -10 0 6 5 15 11 21 8 8 4 22 -12 51 l-23 40 54 61 c30 33 152 163 270
289 156 166 217 225 223 216 11 -19 0 -34 -24 -34 -10 0 -19 -4 -19 -9 0 -16
25 -28 55 -27 17 1 33 -3 37 -8 4 -6 16 2 29 17 26 34 38 28 15 -8 -18 -27
-17 -28 8 -19 9 3 16 12 16 20 0 8 10 14 25 14 14 0 25 -4 25 -10 0 -5 -3 -10
-7 -10 -5 0 -9 -12 -10 -27 -1 -19 1 -22 8 -12 7 11 9 9 9 -7 0 -11 11 -31 25
-44 23 -21 29 -23 55 -13 17 6 30 8 30 3 0 -5 -13 -11 -30 -15 -32 -7 -41 -25
-12 -25 25 0 134 114 332 350 147 174 260 324 260 346 0 8 27 34 35 34 4 0 23
17 43 38 37 37 62 50 62 33 0 -5 10 -7 22 -3 14 3 19 2 14 -6 -4 -7 -1 -12 8
-12 8 0 17 -4 20 -9 4 -5 -3 -7 -14 -4 -16 4 -20 0 -20 -17 0 -17 4 -20 18
-14 24 11 63 8 72 -5 4 -7 27 12 59 49 29 33 62 65 73 71 19 10 20 9 14 -16
-4 -15 -27 -57 -51 -93 l-45 -66 37 -31 c21 -16 40 -30 43 -30 9 0 80 63 80
70 0 11 165 189 348 376 94 97 172 184 172 193 0 9 5 16 11 16 7 0 9 11 6 30
-4 17 -2 30 2 30 5 0 31 21 57 47 31 31 56 48 73 48 16 0 25 6 23 14 -2 9 3
11 13 7 9 -3 19 -6 21 -6 3 0 3 -4 0 -8 -2 -4 -1 -14 5 -22 6 -11 9 -12 9 -2
0 7 4 11 10 7 5 -3 7 -12 3 -21 -4 -12 0 -14 21 -8 18 4 27 2 32 -9 10 -26 39
-7 67 43 15 27 38 56 50 65 28 19 71 19 91 -1z m1021 -245 c14 -21 -111 -199
-140 -199 -28 0 -26 22 7 76 63 106 115 154 133 123z m-727 -215 c2 -13 -14
-42 -39 -75 -94 -122 -138 -151 -169 -114 -23 28 -1 76 70 148 60 61 71 68
101 65 26 -2 35 -8 37 -24z m440 2 c3 -12 -1 -17 -10 -14 -7 3 -15 13 -16 22
-3 12 1 17 10 14 7 -3 15 -13 16 -22z m-258 -46 c-8 -5 -19 -10 -25 -10 -5 0
-3 5 5 10 8 5 20 10 25 10 6 0 3 -5 -5 -10z m410 -70 c0 -13 -5 -18 -15 -14
-8 4 -15 12 -15 20 0 8 7 14 15 14 8 0 15 -9 15 -20z m670 -109 c0 -56 -74
-191 -104 -191 -25 0 -26 32 -3 84 56 121 107 173 107 107z m-380 -37 c0 -3
-32 -46 -71 -95 -72 -90 -102 -108 -114 -69 -14 45 100 170 155 170 16 0 30
-3 30 -6z m-1290 -24 c0 -5 -7 -10 -16 -10 -8 0 -12 5 -9 10 3 6 10 10 16 10
5 0 9 -4 9 -10z m247 -126 c-3 -3 -12 -4 -19 -1 -8 3 -5 6 6 6 11 1 17 -2 13
-5z m813 -95 c-7 -11 -14 -18 -17 -15 -8 8 5 36 17 36 7 0 7 -6 0 -21z m280
12 c0 -6 -4 -12 -8 -15 -5 -3 -9 1 -9 9 0 8 4 15 9 15 4 0 8 -4 8 -9z m40 -41
c0 -5 -5 -10 -11 -10 -5 0 -7 5 -4 10 3 6 8 10 11 10 2 0 4 -4 4 -10z m-3160
-44 c0 -29 -176 -226 -202 -226 -27 0 -33 26 -12 58 37 57 179 182 207 182 4
0 7 -6 7 -14z m3380 -140 c0 -2 -7 -7 -16 -10 -8 -3 -12 -2 -9 4 6 10 25 14
25 6z m-2410 -85 c0 -5 -7 -11 -15 -15 -15 -5 -20 5 -8 17 9 10 23 9 23 -2z
m-1330 -11 c20 -12 9 -21 -18 -13 -12 3 -19 9 -16 14 7 11 15 11 34 -1z m1270
-11 c0 -6 -4 -7 -10 -4 -5 3 -10 11 -10 16 0 6 5 7 10 4 6 -3 10 -11 10 -16z
m-1300 -19 c0 -5 -2 -10 -4 -10 -3 0 -8 5 -11 10 -3 6 -1 10 4 10 6 0 11 -4
11 -10z m-30 -20 c0 -5 -2 -10 -4 -10 -3 0 -8 5 -11 10 -3 6 -1 10 4 10 6 0
11 -4 11 -10z m1434 0 c-7 -7 -19 -7 -35 -1 -23 9 -22 10 11 10 23 1 31 -2 24
-9z m-147 -26 c9 -25 -25 -80 -92 -151 -61 -63 -90 -77 -102 -47 -9 25 25 80
93 151 62 64 89 76 101 47z m2680 -20 c10 -26 -60 -134 -88 -134 -34 0 -6 95
39 131 30 23 41 24 49 3z m-2577 -148 c0 -3 -4 -8 -10 -11 -5 -3 -10 -1 -10 4
0 6 5 11 10 11 6 0 10 -2 10 -4z m67 -71 c9 -25 -4 -29 -17 -6 -7 15 -7 21 0
21 6 0 13 -7 17 -15z m2388 -5 c-3 -5 -12 -10 -18 -10 -7 0 -6 4 3 10 19 12
23 12 15 0z m-2085 -180 c0 -5 -4 -10 -10 -10 -5 0 -10 5 -10 10 0 6 5 10 10
10 6 0 10 -4 10 -10z m2420 -25 c0 -62 -96 -185 -145 -185 -31 0 -48 30 -36
62 6 13 36 51 69 86 43 46 65 62 85 62 22 0 27 -5 27 -25z m-3190 -100 c0 -8
-25 -42 -55 -76 -30 -34 -55 -65 -55 -70 0 -15 -30 -10 -36 5 -13 35 82 156
122 156 14 0 24 -6 24 -15z m-1496 -248 c9 -15 -2 -30 -79 -102 -49 -47 -93
-85 -97 -85 -4 0 -10 11 -14 24 -8 33 19 80 78 138 54 53 90 61 112 25z m3206
-46 c8 -16 2 -29 -32 -73 -49 -62 -67 -77 -90 -78 -24 0 -23 31 3 82 41 79 96
112 119 69z m-2280 5 c0 -3 -4 -8 -10 -11 -5 -3 -10 -1 -10 4 0 6 5 11 10 11
6 0 10 -2 10 -4z m130 -20 c0 -3 -4 -8 -10 -11 -5 -3 -10 -1 -10 4 0 6 5 11
10 11 6 0 10 -2 10 -4z m-185 -26 c-3 -5 -13 -10 -21 -10 -8 0 -14 5 -14 10 0
6 9 10 21 10 11 0 17 -4 14 -10z m-15 -51 c0 -11 -28 -24 -36 -17 -2 3 -2 12
2 21 6 16 34 12 34 -4z m58 -1 c-3 -7 -13 -15 -24 -17 -16 -3 -17 -1 -5 13 16
19 34 21 29 4z m75 -14 c10 -11 -4 -33 -18 -28 -8 3 -11 12 -8 20 5 15 16 18
26 8z m95 -29 c-3 -3 -9 2 -12 12 -6 14 -5 15 5 6 7 -7 10 -15 7 -18z m77 -95
c-10 -11 -22 -20 -26 -20 -15 0 2 29 19 33 10 3 19 5 21 6 2 0 -4 -8 -14 -19z
m335 -78 c0 -13 -119 -185 -138 -199 -23 -19 -40 -16 -47 7 -14 45 109 200
158 200 15 0 27 -4 27 -8z m1791 -138 c11 -13 9 -23 -10 -60 -37 -70 -131
-144 -131 -104 0 12 67 149 82 168 14 17 43 15 59 -4z m-2035 -268 c12 -13 12
-15 -6 -13 -11 1 -20 7 -20 14 0 17 8 16 26 -1z m-884 -9 c-9 -10 -5 -13 16
-11 32 2 60 -21 37 -30 -8 -3 -15 -1 -15 5 0 6 -10 9 -22 6 -13 -3 -32 -2 -42
2 -18 7 -18 8 5 24 28 20 35 22 21 4z m848 3 c0 -5 -4 -10 -10 -10 -5 0 -10 5
-10 10 0 6 5 10 10 10 6 0 10 -4 10 -10z m10 -33 c0 8 12 11 38 9 20 -3 41 -5
45 -5 5 -1 5 -6 2 -12 -4 -6 -14 -8 -24 -5 -15 6 -15 5 0 -6 13 -11 8 -13 -35
-12 -69 1 -68 1 -55 25 9 17 13 19 20 8 6 -10 9 -10 9 -2z m-720 -62 c-7 -8
-22 -14 -34 -14 -20 2 -20 2 2 6 12 2 22 9 22 14 0 5 5 9 11 9 8 0 8 -5 -1
-15z m1168 -40 c1 -11 -15 -45 -37 -75 -72 -99 -82 -106 -101 -69 -9 17 -6 31
16 76 15 31 36 65 46 75 25 25 72 21 76 -7z m-1068 -30 c0 -8 -9 -15 -20 -15
-25 0 -26 17 -2 23 9 3 18 5 20 6 1 0 2 -6 2 -14z m-270 -108 c0 -11 -35 -59
-99 -134 -22 -26 -41 -30 -41 -8 0 19 44 91 78 128 27 28 62 36 62 14z m874
-46 c3 -5 -1 -11 -9 -15 -9 -3 -15 0 -15 9 0 16 16 20 24 6z m2084 -249 c3
-27 -4 -40 -36 -73 -70 -69 -90 -47 -50 56 20 53 23 56 52 53 27 -3 31 -7 34
-36z m-1458 -6 c0 -8 -18 -35 -39 -60 -22 -25 -42 -55 -46 -66 -9 -29 -45 -26
-45 4 0 35 40 88 85 113 22 12 41 22 43 22 1 1 2 -5 2 -13z m-1550 -106 c0 -5
-4 -10 -10 -10 -5 0 -10 5 -10 10 0 6 5 10 10 10 6 0 10 -4 10 -10z m1315
-190 c3 -5 1 -10 -4 -10 -6 0 -11 5 -11 10 0 6 2 10 4 10 3 0 8 -4 11 -10z
m-1025 -25 c0 -8 -7 -15 -15 -15 -13 0 -14 3 -3 15 16 18 18 18 18 0z m987 9
c-3 -3 -12 -4 -19 -1 -8 3 -5 6 6 6 11 1 17 -2 13 -5z m73 -4 c0 -5 -4 -10
-10 -10 -5 0 -10 5 -10 10 0 6 5 10 10 10 6 0 10 -4 10 -10z m-3 -45 c-7 -16
-37 -21 -37 -5 0 10 32 31 39 25 2 -2 1 -11 -2 -20z m-1227 -20 c0 -9 -23 -43
-51 -77 -28 -34 -62 -78 -75 -100 -27 -43 -54 -50 -54 -15 0 29 64 130 110
175 36 34 70 42 70 17z m300 -37 c0 -4 -12 -8 -27 -7 -25 0 -26 1 -8 9 19 7
19 8 2 15 -15 6 -16 10 -5 16 12 8 38 -14 38 -33z m60 -68 c0 -5 -4 -10 -10
-10 -5 0 -10 5 -10 10 0 6 5 10 10 10 6 0 10 -4 10 -10z m-157 -274 c-2 -27
-53 -111 -95 -156 -45 -49 -62 7 -23 78 54 99 123 144 118 78z m-1803 -76 c0
-6 -29 -42 -64 -79 -36 -38 -76 -92 -91 -120 -29 -59 -58 -66 -63 -17 -6 47 6
72 60 132 62 67 158 118 158 84z m479 -132 c-6 -13 -31 -45 -54 -73 -49 -58
-115 -154 -115 -166 0 -20 25 -59 41 -64 9 -3 20 -12 23 -20 3 -8 16 -15 29
-15 57 0 60 5 -200 -317 -112 -139 -200 -253 -196 -253 4 0 -2 -6 -13 -14 -18
-14 -18 -15 9 -22 21 -5 25 -9 15 -15 -9 -6 -6 -9 11 -9 13 0 21 -3 18 -6 -12
-13 13 -43 30 -37 11 4 14 3 9 -5 -4 -7 -2 -12 3 -12 6 0 11 5 11 11 0 8 4 8
14 -1 8 -6 13 -17 10 -24 -3 -7 5 -12 17 -13 27 -2 45 -18 30 -27 -6 -4 -11
-2 -11 3 0 6 -8 11 -17 11 -13 0 -12 -5 8 -26 13 -14 25 -20 27 -15 5 14 32
14 32 1 0 -5 8 -10 18 -10 14 0 15 -2 2 -10 -12 -8 -11 -10 8 -10 36 0 26 -26
-44 -116 -36 -46 -62 -84 -58 -84 4 0 -1 -7 -12 -15 -18 -13 -18 -14 -1 -15
10 0 16 -4 13 -9 -4 -5 1 -8 10 -7 10 2 29 -10 45 -26 15 -16 37 -30 48 -31
13 -1 20 -6 17 -14 -6 -16 6 -17 21 -2 7 7 12 6 16 -5 4 -9 2 -16 -3 -16 -5 0
-7 -7 -4 -15 4 -8 17 -15 30 -15 20 0 24 5 22 28 -2 35 15 65 51 91 27 19 81
29 81 15 0 -4 -9 -23 -19 -43 -10 -20 -24 -55 -30 -77 -8 -29 -16 -41 -27 -40
-9 0 -19 -4 -21 -10 -2 -7 6 -10 22 -9 14 2 25 2 25 1 0 -2 -47 -65 -104 -142
-57 -76 -102 -142 -99 -147 3 -4 10 -2 16 6 8 10 18 12 32 7 11 -5 15 -9 9 -9
-7 -1 -14 -8 -18 -16 -5 -13 -2 -14 15 -5 22 12 59 5 59 -12 0 -6 3 -9 6 -6 3
4 15 -3 26 -14 l21 -21 26 31 c30 35 97 82 117 82 23 0 16 -27 -15 -62 -50
-58 -69 -111 -50 -135 9 -10 23 4 66 65 72 101 76 104 70 65 -5 -29 -3 -31 13
-21 10 7 25 8 36 3 18 -7 18 -8 2 -12 -10 -3 -18 -9 -18 -14 0 -11 49 -33 66
-30 6 0 17 -6 24 -14 9 -10 9 -15 1 -15 -6 0 -11 -5 -11 -11 0 -5 5 -7 11 -3
6 3 14 1 18 -5 4 -6 25 -12 46 -13 38 -1 38 -2 17 -19 l-21 -17 24 -4 c17 -4
25 -1 25 9 0 12 3 12 16 -1 11 -12 20 -13 34 -6 33 18 125 139 190 249 14 24
46 71 72 104 26 34 69 93 95 131 27 39 60 82 75 98 14 15 23 28 20 28 -12 0
23 20 36 20 6 0 12 -4 12 -10 0 -5 11 -20 25 -34 14 -14 25 -21 25 -16 0 6 7
10 15 10 9 0 12 -6 9 -15 -5 -11 2 -15 26 -15 24 0 31 -4 26 -15 -4 -11 1 -15
17 -15 20 -1 20 -2 4 -11 -9 -5 -21 -8 -25 -5 -5 3 -9 -1 -9 -9 0 -11 9 -13
37 -9 23 4 40 2 44 -5 4 -6 16 -11 27 -11 13 0 19 -7 19 -21 0 -12 8 -23 19
-26 11 -3 22 -11 25 -19 3 -8 12 -14 21 -14 13 0 14 -4 4 -22 -15 -30 -1 -15
47 48 22 28 73 93 115 145 113 141 389 504 445 586 31 45 53 68 58 62 15 -14
29 -11 23 5 -4 10 4 17 24 21 16 4 29 11 29 17 0 6 6 8 14 5 7 -3 24 7 37 21
69 79 151 188 183 244 21 35 53 74 72 88 19 14 53 49 76 78 37 47 45 53 70 48
23 -5 28 -2 28 14 0 11 7 20 15 20 10 0 15 -11 15 -35 0 -26 4 -33 14 -29 14
5 43 -32 38 -49 -1 -5 2 -6 7 -3 5 4 11 0 14 -6 2 -7 8 -10 12 -5 5 4 3 13 -3
19 -7 7 -12 16 -12 21 0 6 10 -1 23 -15 19 -20 28 -23 52 -16 19 5 32 3 36 -4
11 -17 1 -28 -25 -28 -22 0 -46 -17 -46 -33 0 -5 18 -6 40 -2 36 6 40 5 40
-14 0 -12 3 -20 8 -19 12 3 82 -43 82 -55 0 -15 -72 -117 -130 -187 -55 -65
-140 -201 -140 -223 0 -9 -5 -19 -10 -22 -6 -4 -7 -11 -4 -17 4 -6 2 -8 -4 -4
-6 3 -13 2 -17 -4 -3 -5 2 -10 13 -10 10 0 22 -3 26 -7 4 -4 17 -8 28 -8 12 0
23 -6 26 -13 3 -9 -3 -13 -18 -10 -19 3 -23 -2 -25 -36 -2 -38 -1 -39 14 -20
19 23 120 27 106 4 -4 -6 -21 -8 -39 -5 -27 6 -32 4 -32 -14 0 -15 5 -19 18
-15 29 9 107 11 102 2 -10 -15 7 -50 22 -44 7 3 16 1 19 -4 4 -6 -4 -10 -16
-10 -17 0 -19 -3 -10 -13 6 -8 7 -17 3 -22 -4 -4 3 -4 15 -1 31 10 37 -10 11
-36 -13 -13 -23 -32 -23 -43 0 -25 -76 -135 -93 -135 -7 0 -10 -4 -7 -10 7
-11 -25 -55 -200 -280 -66 -86 -178 -244 -250 -353 -106 -160 -132 -194 -141
-182 -18 24 -23 18 -19 -22 2 -21 -2 -46 -9 -55 -12 -17 -15 -17 -45 -2 -17 8
-29 20 -25 25 3 5 10 6 16 3 7 -4 8 -2 4 4 -10 16 -24 15 -42 -3 -8 -8 -20
-12 -27 -9 -7 2 -23 -7 -36 -22 -12 -14 -25 -23 -29 -19 -4 3 1 11 11 16 9 6
17 14 17 20 0 5 -11 2 -25 -7 -24 -16 -25 -16 -18 2 3 9 -25 -16 -64 -56 -60
-63 -68 -76 -55 -86 27 -20 5 -60 -72 -128 -40 -36 -78 -66 -85 -66 -27 0 -6
45 52 112 34 40 62 82 62 94 1 18 -4 20 -36 17 -26 -3 -41 0 -50 12 -30 36
-52 54 -60 50 -12 -8 -41 26 -35 41 8 22 -20 5 -31 -19 -6 -12 -52 -78 -103
-147 -51 -69 -96 -134 -101 -145 -7 -18 -76 -104 -186 -232 -20 -24 -53 -67
-74 -98 -82 -121 -158 -202 -194 -207 -29 -3 -99 -66 -169 -152 -21 -25 -42
-43 -47 -40 -20 12 -6 55 41 123 27 40 50 76 50 81 0 5 12 18 28 29 l27 20
-45 1 c-32 0 -50 6 -62 19 -8 10 -21 20 -29 23 -7 2 -12 19 -12 36 0 18 -3 28
-7 22 -4 -7 -20 -9 -42 -5 -30 6 -35 10 -30 28 3 12 9 25 15 28 5 4 5 9 -1 13
-6 3 -19 -7 -28 -24 -10 -16 -22 -30 -26 -30 -16 0 -228 -290 -289 -396 -88
-153 -122 -205 -181 -282 -38 -48 -68 -90 -68 -94 0 -4 -8 -9 -18 -12 -11 -4
-36 -23 -56 -44 -33 -33 -42 -37 -77 -34 -31 3 -39 8 -35 19 5 12 1 14 -16 10
-32 -8 -52 6 -45 32 3 13 -1 24 -10 30 -11 6 -12 10 -4 15 17 11 13 26 -8 26
-10 0 -29 11 -42 25 -13 13 -29 25 -34 25 -6 0 -19 9 -28 21 -10 11 -25 18
-33 15 -9 -3 -16 3 -20 19 -3 14 -13 25 -21 25 -10 0 -5 13 17 44 16 25 30 49
30 55 0 6 5 11 11 11 7 0 0 11 -15 25 -15 14 -24 30 -21 35 3 6 1 10 -4 10 -6
0 -11 7 -11 16 0 10 -6 14 -15 10 -8 -3 -21 4 -29 15 -7 11 -23 21 -35 22 -11
1 -21 7 -21 14 0 12 -12 17 -32 14 -4 0 -15 10 -25 22 -10 13 -23 22 -30 20
-6 -2 -14 5 -18 16 -3 12 -11 21 -17 21 -5 0 -8 6 -5 13 4 10 -2 13 -18 9 -12
-2 -26 1 -30 7 -3 7 33 68 83 139 l90 127 -24 15 c-16 10 -22 20 -18 33 5 17
3 17 -17 7 -19 -11 -21 -10 -17 6 4 15 -1 19 -21 21 -14 0 -27 6 -29 12 -2 6
-8 9 -13 5 -5 -3 -9 1 -9 8 0 7 -14 19 -31 27 -19 8 -28 18 -25 27 4 11 -1 13
-19 8 -21 -5 -25 -3 -25 15 0 42 -27 19 -109 -93 -75 -103 -85 -113 -102 -103
-11 7 -17 18 -14 25 2 7 -1 12 -8 11 -23 -4 -67 13 -67 27 0 7 -9 18 -20 24
-11 6 -20 18 -20 26 0 9 5 12 13 8 6 -4 9 -3 4 1 -11 13 -47 13 -41 1 3 -6 -3
-1 -14 12 -11 12 -28 22 -37 22 -9 0 -14 4 -11 9 5 7 -17 19 -46 25 -3 0 -10
4 -14 9 -4 4 -11 7 -15 7 -4 0 -58 -66 -120 -146 -108 -141 -113 -146 -128
-126 -9 10 -28 22 -42 26 -16 3 -29 15 -32 27 -3 12 -10 18 -16 15 -5 -3 -19
7 -31 24 -12 16 -32 33 -46 36 -13 3 -24 10 -24 15 0 5 -7 9 -15 9 -8 0 -19 9
-25 21 -7 12 -17 18 -27 15 -9 -4 -17 1 -20 14 -3 11 -12 20 -21 20 -8 0 -12
3 -9 7 4 3 -1 12 -10 18 -13 10 -14 16 -7 26 6 8 84 110 173 227 159 208 163
214 151 243 -7 16 -18 29 -24 29 -7 0 -22 9 -34 20 -12 12 -22 18 -22 14 0 -4
-8 0 -18 9 -10 10 -22 15 -25 12 -4 -3 -5 -3 -3 0 4 7 -52 65 -64 65 -4 0 -10
7 -14 15 -3 8 -14 15 -25 15 -12 0 -21 9 -25 25 -4 16 -13 25 -26 25 -11 0
-20 3 -20 8 0 7 1556 1941 1591 1977 16 17 21 18 28 6 5 -8 7 -20 5 -26 -3 -7
3 -15 12 -19 25 -9 30 1 11 22 -10 10 -17 22 -17 27 0 5 9 -1 20 -13 11 -12
20 -26 20 -31 0 -6 8 -15 18 -20 14 -9 12 -10 -13 -11 -26 -1 -28 -2 -12 -11
10 -6 28 -9 38 -6 13 4 22 0 26 -11 7 -19 23 -32 39 -32 6 0 35 36 64 80 55
84 129 160 155 160 13 0 14 -4 4 -22z m-1053 -136 c-3 -5 1 -9 9 -9 8 0 15 4
15 9 0 17 22 7 51 -24 16 -18 29 -27 29 -20 0 21 14 13 27 -15 9 -19 10 -30 2
-40 -9 -9 -8 -13 0 -13 7 0 11 -8 9 -17 -2 -14 3 -17 23 -15 17 1 29 -3 33
-14 6 -15 8 -15 31 0 24 16 25 15 25 -4 0 -12 7 -20 18 -20 18 -1 52 -22 52
-34 0 -3 -7 -6 -15 -6 -8 0 -15 -4 -15 -10 0 -5 9 -10 20 -10 26 0 85 77 -563
-738 -285 -359 -523 -652 -528 -652 -6 0 -8 4 -4 9 3 5 -4 12 -15 16 -11 3
-20 13 -20 21 0 8 -7 14 -15 14 -8 0 -15 6 -15 13 0 8 -7 14 -15 15 -8 1 -22
3 -30 4 -9 1 -14 7 -11 13 5 13 -60 29 -76 19 -5 -4 -25 -30 -44 -60 -36 -56
-50 -65 -61 -38 -12 32 64 151 107 166 8 3 12 9 8 13 -4 4 -14 2 -22 -4 -12
-10 -20 -9 -43 6 -15 9 -32 23 -36 30 -5 8 -12 11 -18 8 -5 -3 -6 1 -3 10 5
11 2 14 -10 9 -10 -4 -16 -1 -16 8 0 7 146 198 325 423 180 226 421 530 538
677 166 209 217 267 235 268 13 0 21 -4 18 -8z m104 -13 c0 -5 -4 -9 -10 -9
-5 0 -10 7 -10 16 0 8 5 12 10 9 6 -3 10 -10 10 -16z m2197 -26 c-3 -3 -11 -2
-17 2 -9 6 -9 10 1 16 14 8 27 -7 16 -18z m1513 -69 c0 -21 -69 -104 -86 -104
-25 0 -15 35 22 78 36 43 64 54 64 26z m-1277 -34 c-3 -12 -8 -19 -11 -16 -5
6 5 36 12 36 2 0 2 -9 -1 -20z m-1546 -26 c-3 -3 -12 -4 -19 -1 -8 3 -5 6 6 6
11 1 17 -2 13 -5z m1266 -112 c-22 -26 -48 -59 -57 -74 -21 -32 -36 -37 -29
-9 8 29 116 157 121 142 2 -7 -14 -33 -35 -59z m1677 -384 c0 -37 -97 -148
-129 -148 -40 0 -36 29 10 77 42 43 95 83 112 83 4 0 7 -6 7 -12z m-2980 -45
c0 -5 -15 -27 -34 -51 -19 -23 -37 -54 -40 -68 -10 -39 -40 -28 -44 17 -5 54
44 106 101 108 9 1 17 -2 17 -6z m1500 -32 c0 -5 -29 -39 -65 -76 -61 -64 -86
-71 -49 -15 44 65 114 122 114 91z m-146 -418 c-8 -35 -71 -130 -92 -138 -38
-14 -31 48 11 95 22 24 76 70 84 70 2 0 1 -12 -3 -27z m-831 -460 c-3 -10 -29
-51 -56 -91 -49 -71 -78 -88 -85 -51 -5 29 107 152 145 159 1 0 0 -8 -4 -17z
m-133 -205 c0 -5 -9 -3 -20 4 -11 7 -20 16 -20 20 0 5 9 3 20 -4 11 -7 20 -16
20 -20z m98 -73 c-3 -3 -9 2 -12 12 -6 14 -5 15 5 6 7 -7 10 -15 7 -18z
m-2248 -260 c0 -17 -78 -120 -97 -129 -9 -4 -13 5 -13 28 0 23 10 45 36 74 35
42 74 56 74 27z m3740 -105 c0 -5 -8 -10 -17 -10 -15 0 -16 2 -3 10 19 12 20
12 20 0z m-2720 -520 c0 -31 -159 -260 -181 -260 -22 0 83 206 132 259 25 27
49 27 49 1z m-465 -120 c3 -5 -29 -44 -72 -86 -68 -66 -78 -73 -81 -54 -5 34
17 76 59 115 38 34 81 46 94 25z m-625 -56 c0 -4 -22 -32 -48 -63 -26 -31 -67
-82 -91 -113 -24 -32 -45 -58 -48 -58 -9 0 47 88 105 160 54 70 82 95 82 74z
m1247 -355 c9 -9 -2 -24 -43 -62 -31 -28 -75 -76 -100 -109 -51 -65 -67 -73
-54 -26 23 76 131 202 181 207 3 1 10 -4 16 -10z m237 -324 c-4 -8 -8 -15 -10
-15 -2 0 -4 7 -4 15 0 8 4 15 10 15 5 0 7 -7 4 -15z m42 -120 c8 -19 -76 -154
-129 -208 -34 -35 -41 -39 -45 -24 -3 17 91 189 126 230 19 21 41 22 48 2z"/>
<path d="M7320 8559 c0 -5 5 -7 10 -4 6 3 10 8 10 11 0 2 -4 4 -10 4 -5 0 -10
-5 -10 -11z"/>
<path d="M7462 8523 c2 -10 14 -23 28 -30 14 -6 20 -12 13 -12 -6 -1 -11 -10
-10 -20 0 -11 6 -17 14 -14 7 3 10 9 7 14 -3 5 2 9 10 9 23 0 20 7 -16 40 -38
34 -50 37 -46 13z"/>
<path d="M5410 8359 c0 -5 5 -7 10 -4 6 3 10 8 10 11 0 2 -4 4 -10 4 -5 0 -10
-5 -10 -11z"/>
<path d="M5772 8282 c-12 -2 -20 -8 -16 -13 3 -6 -2 -16 -11 -23 -17 -12 -17
-13 0 -19 12 -5 18 -1 22 13 3 11 11 20 19 20 15 0 28 17 17 22 -5 2 -18 2
-31 0z"/>
<path d="M6858 8123 c7 -3 16 -2 19 1 4 3 -2 6 -13 5 -11 0 -14 -3 -6 -6z"/>
<path d="M7863 8113 c9 -2 23 -2 30 0 6 3 -1 5 -18 5 -16 0 -22 -2 -12 -5z"/>
<path d="M5755 8100 c28 -12 37 -12 30 0 -3 6 -16 10 -28 9 -21 0 -21 -1 -2
-9z"/>
<path d="M7455 8099 c-4 -6 -5 -12 -2 -15 2 -3 7 2 10 11 7 17 1 20 -8 4z"/>
<path d="M5618 8080 c-14 -11 -28 -29 -31 -40 -7 -26 10 -26 18 -1 4 13 11 18
22 14 12 -5 15 -2 11 9 -4 9 -1 21 5 27 18 18 2 13 -25 -9z"/>
<path d="M7606 8053 c-6 -14 -5 -15 5 -6 7 7 10 15 7 18 -3 3 -9 -2 -12 -12z"/>
<path d="M5826 8031 c-4 -5 -2 -12 3 -15 5 -4 12 -2 15 3 4 5 2 12 -3 15 -5 4
-12 2 -15 -3z"/>
<path d="M5620 8000 c0 -5 5 -10 10 -10 6 0 10 5 10 10 0 6 -4 10 -10 10 -5 0
-10 -4 -10 -10z"/>
<path d="M7580 8000 c-23 -7 -23 -8 -3 -9 12 -1 25 4 28 9 3 6 5 10 3 9 -2 -1
-14 -5 -28 -9z"/>
<path d="M5665 7991 c-3 -2 -3 -7 0 -10 5 -10 75 -1 75 9 0 8 -67 9 -75 1z"/>
<path d="M5866 7977 c3 -10 9 -15 12 -12 3 3 0 11 -7 18 -10 9 -11 8 -5 -6z"/>
<path d="M8036 7983 c-11 -11 -6 -23 9 -23 8 0 15 4 15 9 0 13 -16 22 -24 14z"/>
<path d="M5810 7934 c0 -8 5 -12 10 -9 6 3 10 10 10 16 0 5 -4 9 -10 9 -5 0
-10 -7 -10 -16z"/>
<path d="M7815 7930 c-3 -5 -1 -10 4 -10 6 0 11 5 11 10 0 6 -2 10 -4 10 -3 0
-8 -4 -11 -10z"/>
<path d="M8007 7916 c-7 -17 22 -31 36 -17 6 6 2 13 -11 20 -15 8 -21 7 -25
-3z"/>
<path d="M8120 7860 c0 -5 5 -10 10 -10 6 0 10 5 10 10 0 6 -4 10 -10 10 -5 0
-10 -4 -10 -10z"/>
<path d="M4370 7756 c0 -17 27 -29 35 -16 4 6 3 15 0 20 -9 15 -35 12 -35 -4z"/>
<path d="M4548 7633 c7 -3 16 -2 19 1 4 3 -2 6 -13 5 -11 0 -14 -3 -6 -6z"/>
<path d="M7975 7619 c-4 -6 -5 -13 -2 -16 7 -7 27 6 27 18 0 12 -17 12 -25 -2z"/>
<path d="M4560 7595 c-10 -12 -10 -15 4 -15 9 0 16 7 16 15 0 8 -2 15 -4 15
-2 0 -9 -7 -16 -15z"/>
<path d="M4515 7589 c-4 -6 -5 -12 -2 -15 2 -3 7 2 10 11 7 17 1 20 -8 4z"/>
<path d="M5870 7535 c1 -26 2 -28 11 -12 8 14 8 22 0 30 -8 8 -11 3 -11 -18z"/>
<path d="M6075 7410 c-3 -5 -2 -10 4 -10 5 0 13 5 16 10 3 6 2 10 -4 10 -5 0
-13 -4 -16 -10z"/>
<path d="M6475 7400 c3 -5 8 -10 11 -10 2 0 4 5 4 10 0 6 -5 10 -11 10 -5 0
-7 -4 -4 -10z"/>
<path d="M8215 7400 c3 -5 10 -10 16 -10 5 0 9 5 9 10 0 6 -7 10 -16 10 -8 0
-12 -4 -9 -10z"/>
<path d="M6124 7389 c-4 -7 4 -10 25 -7 20 2 36 -3 42 -12 9 -12 10 -12 5 3
-3 10 -6 21 -6 23 0 9 -59 3 -66 -7z"/>
<path d="M8220 7366 c0 -2 7 -7 16 -10 8 -3 12 -2 9 4 -6 10 -25 14 -25 6z"/>
<path d="M6270 7310 c0 -5 7 -7 15 -4 8 4 15 8 15 10 0 2 -7 4 -15 4 -8 0 -15
-4 -15 -10z"/>
<path d="M3950 7290 c0 -5 7 -10 16 -10 8 0 12 5 9 10 -3 6 -10 10 -16 10 -5
0 -9 -4 -9 -10z"/>
<path d="M6910 7280 c0 -5 5 -10 10 -10 6 0 10 5 10 10 0 6 -4 10 -10 10 -5 0
-10 -4 -10 -10z"/>
<path d="M3875 7250 c-3 -5 1 -10 9 -10 9 0 16 5 16 10 0 6 -4 10 -9 10 -6 0
-13 -4 -16 -10z"/>
<path d="M6870 7220 c0 -5 7 -10 16 -10 8 0 12 5 9 10 -3 6 -10 10 -16 10 -5
0 -9 -4 -9 -10z"/>
<path d="M8176 7135 c-4 -11 1 -15 21 -15 14 0 24 1 22 3 -2 1 -11 8 -20 15
-14 10 -18 10 -23 -3z"/>
<path d="M8151 7124 c0 -11 3 -14 6 -6 3 7 2 16 -1 19 -3 4 -6 -2 -5 -13z"/>
<path d="M8095 7100 c-3 -5 -2 -10 4 -10 5 0 13 5 16 10 3 6 2 10 -4 10 -5 0
-13 -4 -16 -10z"/>
<path d="M3970 7060 c0 -5 5 -10 11 -10 5 0 7 5 4 10 -3 6 -8 10 -11 10 -2 0
-4 -4 -4 -10z"/>
<path d="M4628 6763 c7 -3 16 -2 19 1 4 3 -2 6 -13 5 -11 0 -14 -3 -6 -6z"/>
<path d="M4800 6751 c0 -6 4 -13 10 -16 6 -3 7 1 4 9 -7 18 -14 21 -14 7z"/>
<path d="M4514 6691 c-2 -2 -4 -11 -4 -18 0 -16 36 -9 58 12 11 10 8 12 -18
11 -17 -1 -33 -3 -36 -5z"/>
<path d="M4835 6640 c-16 -7 -14 -9 12 -7 17 0 29 5 27 9 -6 10 -13 9 -39 -2z"/>
<path d="M4486 6619 c3 -5 11 -9 19 -9 8 0 16 4 19 9 3 5 -5 9 -19 9 -14 0
-22 -4 -19 -9z"/>
<path d="M4560 6619 c0 -5 5 -7 10 -4 6 3 10 8 10 11 0 2 -4 4 -10 4 -5 0 -10
-5 -10 -11z"/>
<path d="M4600 6600 c-10 -6 -5 -9 18 -8 22 1 29 4 20 9 -16 11 -20 11 -38 -1z"/>
<path d="M4825 6600 c3 -5 8 -10 11 -10 2 0 4 5 4 10 0 6 -5 10 -11 10 -5 0
-7 -4 -4 -10z"/>
<path d="M4750 6571 c0 -5 6 -11 13 -13 17 -7 38 2 31 13 -7 12 -44 12 -44 0z"/>
<path d="M4844 6566 c-29 -22 -13 -24 26 -4 26 13 30 18 14 18 -11 0 -29 -6
-40 -14z"/>
<path d="M4707 6555 c-22 -9 -25 -14 -15 -22 10 -8 18 -8 32 2 27 20 16 34
-17 20z"/>
<path d="M4260 6500 c0 -5 7 -10 16 -10 8 0 12 5 9 10 -3 6 -10 10 -16 10 -5
0 -9 -4 -9 -10z"/>
<path d="M4792 6501 c-11 -7 -11 -9 1 -14 9 -3 21 1 27 9 10 11 10 14 -1 14
-8 0 -20 -4 -27 -9z"/>
<path d="M4489 6466 c-1 -3 -2 -9 -3 -13 -1 -5 -5 -14 -10 -21 -9 -15 -2 -27
12 -18 14 8 22 45 11 52 -5 3 -10 3 -10 0z"/>
<path d="M4395 6380 c-3 -5 -3 -10 2 -10 4 0 2 -4 -5 -8 -9 -6 -6 -12 13 -20
24 -11 25 -10 25 18 0 30 -21 42 -35 20z"/>
<path d="M4370 6330 c0 -5 5 -10 10 -10 6 0 10 5 10 10 0 6 -4 10 -10 10 -5 0
-10 -4 -10 -10z"/>
<path d="M4521 6311 l-24 -19 21 -11 c12 -6 22 -10 23 -9 2 11 7 58 6 58 -1 0
-13 -9 -26 -19z"/>
<path d="M4596 6267 c3 -10 9 -15 12 -12 3 3 0 11 -7 18 -10 9 -11 8 -5 -6z"/>
<path d="M4628 6273 c7 -3 16 -2 19 1 4 3 -2 6 -13 5 -11 0 -14 -3 -6 -6z"/>
<path d="M4929 6273 c-11 -3 -15 -11 -12 -24 4 -12 -1 -25 -12 -33 -17 -12
-16 -13 6 -11 17 1 25 10 32 34 9 37 9 39 -14 34z"/>
<path d="M4791 6239 c-11 -18 -11 -23 1 -30 21 -14 48 -10 48 6 0 9 -6 12 -17
8 -13 -5 -15 -2 -11 15 8 28 -3 28 -21 1z"/>
<path d="M4536 6235 c-18 -14 -18 -14 1 -12 11 0 20 7 20 14 0 7 -1 13 -1 13
-1 0 -9 -7 -20 -15z"/>
<path d="M4970 6234 c0 -5 7 -18 15 -28 12 -16 15 -17 15 -4 0 8 -7 21 -15 28
-8 7 -15 9 -15 4z"/>
<path d="M4590 6210 c19 -13 30 -13 30 0 0 6 -10 10 -22 10 -19 0 -20 -2 -8
-10z"/>
<path d="M5001 6168 c-11 -17 -15 -18 -22 -7 -7 11 -9 11 -9 -3 0 -11 8 -18
20 -18 11 0 19 6 18 13 -2 6 3 11 10 10 13 -3 17 13 4 21 -4 2 -14 -5 -21 -16z"/>
<path d="M4874 6155 c-10 -8 -14 -15 -8 -15 6 0 17 7 24 15 16 19 9 19 -16 0z"/>
<path d="M4470 6149 c0 -5 5 -7 10 -4 6 3 10 8 10 11 0 2 -4 4 -10 4 -5 0 -10
-5 -10 -11z"/>
<path d="M4429 6130 c-18 -12 -6 -23 19 -18 16 2 17 5 7 15 -7 6 -18 8 -26 3z"/>
<path d="M5003 6098 c-2 -5 0 -8 6 -8 5 0 16 -3 24 -6 8 -3 17 1 20 9 4 11 -1
14 -20 13 -14 0 -27 -4 -30 -8z"/>
<path d="M5046 6041 c-4 -5 3 -7 14 -4 23 6 26 13 6 13 -8 0 -17 -4 -20 -9z"/>
<path d="M5081 5726 c-7 -9 -2 -12 20 -14 16 -1 29 2 29 7 0 14 -38 20 -49 7z"/>
<path d="M4920 5692 c1 -17 19 -34 29 -28 17 11 13 23 -9 29 -11 3 -20 2 -20
-1z"/>
<path d="M5227 5694 c-3 -3 -3 -12 0 -19 6 -17 33 -8 33 11 0 14 -21 19 -33 8z"/>
<path d="M4600 5640 c0 -5 5 -10 10 -10 6 0 10 5 10 10 0 6 -4 10 -10 10 -5 0
-10 -4 -10 -10z"/>
<path d="M5200 5640 c0 -5 7 -10 16 -10 8 0 12 5 9 10 -3 6 -10 10 -16 10 -5
0 -9 -4 -9 -10z"/>
<path d="M5260 5640 c0 -5 5 -10 10 -10 6 0 10 5 10 10 0 6 -4 10 -10 10 -5 0
-10 -4 -10 -10z"/>
<path d="M4250 5611 c0 -5 9 -7 20 -4 11 3 20 7 20 9 0 2 -9 4 -20 4 -11 0
-20 -4 -20 -9z"/>
<path d="M5070 5592 c0 -5 10 -17 22 -28 20 -18 21 -18 15 -1 -4 10 -7 23 -7
28 0 5 -7 9 -15 9 -8 0 -15 -4 -15 -8z"/>
<path d="M4400 5470 c0 -5 5 -10 11 -10 5 0 7 5 4 10 -3 6 -8 10 -11 10 -2 0
-4 -4 -4 -10z"/>
<path d="M5030 5450 c0 -5 7 -7 15 -4 8 4 15 8 15 10 0 2 -7 4 -15 4 -8 0 -15
-4 -15 -10z"/>
<path d="M4478 5413 c7 -3 16 -2 19 1 4 3 -2 6 -13 5 -11 0 -14 -3 -6 -6z"/>
<path d="M5250 5402 c0 -25 16 -37 23 -18 3 8 -1 20 -9 26 -11 10 -14 9 -14
-8z"/>
<path d="M5210 5380 c0 -5 5 -10 11 -10 5 0 7 5 4 10 -3 6 -8 10 -11 10 -2 0
-4 -4 -4 -10z"/>
<path d="M4600 5365 c0 -8 2 -15 4 -15 2 0 6 7 10 15 3 8 1 15 -4 15 -6 0 -10
-7 -10 -15z"/>
<path d="M4820 5280 c0 -5 5 -10 11 -10 5 0 7 5 4 10 -3 6 -8 10 -11 10 -2 0
-4 -4 -4 -10z"/>
<path d="M4650 5205 c-8 -9 -8 -15 -2 -15 12 0 26 19 19 26 -2 2 -10 -2 -17
-11z"/>
<path d="M5274 4958 l-19 -23 23 19 c12 11 22 21 22 23 0 8 -8 2 -26 -19z"/>
<path d="M5625 4970 c-3 -5 -1 -10 4 -10 6 0 11 5 11 10 0 6 -2 10 -4 10 -3 0
-8 -4 -11 -10z"/>
<path d="M5350 4900 c0 -5 4 -10 9 -10 6 0 13 5 16 10 3 6 -1 10 -9 10 -9 0
-16 -4 -16 -10z"/>
<path d="M5760 4880 c0 -11 4 -20 9 -20 5 0 7 9 4 20 -3 11 -7 20 -9 20 -2 0
-4 -9 -4 -20z"/>
<path d="M5140 4795 c-11 -13 -10 -14 4 -9 9 3 16 10 16 15 0 13 -6 11 -20 -6z"/>
<path d="M4493 4473 c0 -7 4 -13 7 -13 4 0 12 6 18 13 8 10 6 13 -7 13 -10 0
-18 -6 -18 -13z"/>
<path d="M4535 4440 c3 -5 10 -10 16 -10 5 0 9 5 9 10 0 6 -7 10 -16 10 -8 0
-12 -4 -9 -10z"/>
<path d="M4540 3922 c0 -5 7 -9 15 -9 8 0 15 4 15 9 0 4 -7 8 -15 8 -8 0 -15
-4 -15 -8z"/>
<path d="M4608 3853 c7 -3 16 -2 19 1 4 3 -2 6 -13 5 -11 0 -14 -3 -6 -6z"/>
<path d="M4636 3815 c4 -8 1 -15 -6 -15 -6 0 -8 -5 -4 -11 5 -8 10 -6 16 5 5
9 13 14 19 11 5 -4 9 -4 9 -1 0 3 -9 10 -20 16 -16 9 -18 8 -14 -5z"/>
<path d="M2895 4430 c3 -5 10 -10 16 -10 5 0 9 5 9 10 0 6 -7 10 -16 10 -8 0
-12 -4 -9 -10z"/>
<path d="M2640 3709 c0 -5 5 -7 10 -4 6 3 10 8 10 11 0 2 -4 4 -10 4 -5 0 -10
-5 -10 -11z"/>
<path d="M2690 3670 c0 -5 5 -10 11 -10 5 0 7 5 4 10 -3 6 -8 10 -11 10 -2 0
-4 -4 -4 -10z"/>
<path d="M5570 3639 c0 -5 5 -7 10 -4 6 3 10 8 10 11 0 2 -4 4 -10 4 -5 0 -10
-5 -10 -11z"/>
<path d="M2730 3614 c0 -8 5 -12 10 -9 6 4 8 11 5 16 -9 14 -15 11 -15 -7z"/>
<path d="M5558 3598 c-10 -10 -14 -18 -8 -18 5 0 15 6 22 13 7 8 20 12 30 9
10 -2 18 0 18 4 0 17 -45 11 -62 -8z"/>
<path d="M5760 3522 c0 -12 19 -26 26 -19 2 2 -2 10 -11 17 -9 8 -15 8 -15 2z"/>
<path d="M5780 3470 c0 -5 5 -10 11 -10 5 0 7 5 4 10 -3 6 -8 10 -11 10 -2 0
-4 -4 -4 -10z"/>
<path d="M5780 3425 c0 -14 42 -25 58 -16 9 6 13 11 7 11 -5 1 -22 3 -37 5
-16 2 -28 2 -28 0z"/>
<path d="M4230 3068 c-12 -22 -12 -22 6 -6 10 10 15 20 12 24 -4 3 -12 -5 -18
-18z"/>
<path d="M4284 2985 c-15 -11 -16 -14 -3 -15 8 0 24 7 35 15 15 11 16 14 3 15
-8 0 -24 -7 -35 -15z"/>
<path d="M2970 2770 c0 -5 5 -10 11 -10 5 0 7 5 4 10 -3 6 -8 10 -11 10 -2 0
-4 -4 -4 -10z"/>
<path d="M3280 2730 c0 -5 5 -10 10 -10 6 0 10 5 10 10 0 6 -4 10 -10 10 -5 0
-10 -4 -10 -10z"/>
<path d="M1355 1700 c4 -6 11 -8 16 -5 14 9 11 15 -7 15 -8 0 -12 -5 -9 -10z"/>
<path d="M2595 1030 c3 -5 11 -10 16 -10 6 0 7 5 4 10 -3 6 -11 10 -16 10 -6
0 -7 -4 -4 -10z"/>
<path d="M2825 850 c3 -5 8 -10 11 -10 2 0 4 5 4 10 0 6 -5 10 -11 10 -5 0 -7
-4 -4 -10z"/>
<path d="M2325 4310 c4 -6 11 -8 16 -5 14 9 11 15 -7 15 -8 0 -12 -5 -9 -10z"/>
<path d="M2374 4273 c2 -10 6 -17 10 -16 15 3 16 11 2 22 -12 10 -14 9 -12 -6z"/>
</g>
</svg>
