<?xml version="1.0" standalone="no"?>
<!DOCTYPE svg PUBLIC "-//W3C//DTD SVG 20010904//EN"
 "http://www.w3.org/TR/2001/REC-SVG-20010904/DTD/svg10.dtd">
<svg version="1.0" xmlns="http://www.w3.org/2000/svg"
 width="1000.000000pt" height="1000.000000pt" viewBox="0 0 1000.000000 1000.000000"
 preserveAspectRatio="xMidYMid meet">

<g transform="translate(0.000000,1000.000000) scale(0.100000,-0.100000)"
fill="#000000" stroke="none">
<path d="M6593 9125 c-12 -9 -35 -38 -50 -65 -28 -50 -57 -69 -67 -43 -5 11
-14 13 -32 9 -21 -6 -25 -4 -21 8 4 9 2 18 -3 21 -6 4 -10 0 -10 -7 0 -10 -3
-9 -9 2 -6 8 -7 18 -5 22 3 4 3 8 0 8 -2 0 -12 3 -21 6 -10 4 -15 2 -13 -7 2
-8 -7 -14 -23 -14 -17 0 -42 -17 -73 -48 -26 -26 -52 -47 -57 -47 -4 0 -6 -13
-2 -30 3 -19 1 -30 -6 -30 -6 0 -11 -7 -11 -16 0 -9 -78 -96 -172 -193 -183
-187 -348 -365 -348 -376 0 -7 -71 -70 -80 -70 -3 0 -22 14 -43 30 l-37 31 45
66 c24 36 47 78 51 93 6 25 5 26 -14 16 -11 -6 -44 -38 -73 -71 -32 -37 -55
-56 -59 -49 -9 13 -48 16 -72 5 -14 -6 -18 -3 -18 14 0 17 4 21 20 17 11 -3
18 -1 14 4 -3 5 -12 9 -20 9 -9 0 -12 5 -8 12 5 8 0 9 -14 6 -12 -4 -22 -2
-22 3 0 17 -25 4 -62 -33 -20 -21 -39 -38 -43 -38 -8 0 -35 -26 -35 -34 0 -22
-113 -172 -260 -346 -198 -236 -307 -350 -332 -350 -29 0 -20 18 12 25 17 4
30 10 30 15 0 5 -13 3 -30 -3 -26 -10 -32 -8 -55 13 -14 13 -25 33 -25 44 0
16 -2 18 -9 7 -7 -10 -9 -7 -8 12 1 15 5 27 10 27 4 0 7 5 7 10 0 6 -11 10
-25 10 -15 0 -25 -6 -25 -14 0 -8 -7 -17 -16 -20 -25 -9 -26 -8 -8 19 23 36
11 42 -15 8 -13 -15 -25 -23 -29 -17 -4 5 -20 9 -37 8 -30 -1 -55 11 -55 27 0
5 9 9 19 9 24 0 35 15 24 34 -6 9 -67 -50 -223 -216 -118 -126 -240 -256 -270
-289 l-54 -61 23 -40 c16 -29 20 -43 12 -51 -6 -6 -11 -15 -11 -21 0 -5 6 -1
14 10 8 10 18 16 22 12 4 -5 0 -16 -9 -26 -10 -10 -17 -22 -17 -27 0 -14 64
-70 77 -67 8 2 13 -7 13 -23 0 -21 5 -25 27 -25 26 0 24 -3 -35 -60 -56 -55
-62 -64 -59 -97 1 -20 9 -39 16 -41 10 -3 12 1 9 15 -5 18 -4 18 27 4 18 -9
29 -18 25 -21 -4 -3 -7 -12 -7 -20 -1 -26 -7 -44 -31 -80 -19 -29 -20 -36 -7
-38 8 -2 15 -10 15 -19 0 -19 39 -55 51 -47 5 3 9 -1 9 -10 0 -8 -22 -38 -48
-68 -56 -61 -102 -127 -102 -145 0 -28 26 -9 109 77 86 90 86 90 118 78 17 -6
29 -16 26 -21 -6 -10 31 -6 75 8 18 6 21 4 16 -9 -3 -9 -16 -16 -27 -16 -20 0
-20 -1 -5 -17 13 -12 20 -14 30 -5 9 7 19 8 28 2 9 -6 10 -10 3 -10 -6 0 -9
-9 -6 -20 6 -23 23 -27 23 -6 0 12 9 14 38 7 2 -1 -19 -27 -47 -58 -28 -32
-46 -59 -41 -61 19 -7 10 -32 -11 -32 -19 0 -19 -1 -5 -16 20 -19 20 -25 1
-18 -8 4 -15 1 -15 -6 0 -6 9 -14 20 -17 11 -3 20 -12 20 -19 0 -21 17 -17 23
6 5 18 8 19 31 9 14 -7 26 -18 26 -26 0 -7 7 -13 15 -13 8 0 15 9 15 20 0 11
-6 20 -14 20 -7 0 -16 9 -19 20 -3 11 0 20 5 20 6 0 5 6 -2 15 -7 8 -9 15 -5
15 4 0 16 -11 27 -25 11 -14 28 -25 39 -25 12 0 17 -4 14 -11 -4 -6 -14 -8
-23 -4 -14 5 -14 4 1 -12 11 -12 13 -23 7 -33 -6 -9 -5 -17 3 -22 8 -5 5 -8
-8 -8 l-20 -1 20 -15 c19 -14 19 -16 3 -28 -22 -16 -23 -26 -3 -26 9 0 18 7
21 15 4 8 11 12 17 8 6 -4 8 2 5 14 -3 13 -1 20 6 19 25 -4 37 -19 36 -44 -3
-45 -1 -52 20 -52 10 0 31 -5 45 -12 24 -11 29 -8 73 38 26 27 63 67 83 89 19
22 46 49 60 60 l24 20 -17 -21 c-10 -11 -18 -25 -18 -31 0 -6 -7 -13 -15 -16
-8 -4 -27 -25 -42 -49 -15 -24 -36 -50 -45 -58 -31 -27 -118 -142 -118 -156 0
-8 -6 -14 -12 -14 -7 0 -27 -20 -45 -43 -17 -23 -81 -100 -141 -172 -61 -71
-108 -134 -105 -138 3 -5 10 -4 16 2 16 16 47 13 47 -4 0 -15 -16 -20 -55 -17
-17 2 -17 0 -5 -8 8 -6 32 -7 53 -4 36 6 38 5 28 -14 -9 -16 -7 -19 12 -16 12
1 30 5 40 9 10 4 17 3 17 -4 0 -6 -8 -11 -19 -11 -10 0 -25 -8 -32 -17 -10
-11 -10 -14 -1 -9 7 4 12 2 12 -4 0 -7 7 -9 15 -6 9 3 15 1 14 -7 -3 -27 2
-35 26 -39 20 -4 23 -2 15 12 -7 13 -5 22 5 30 8 7 15 9 16 4 3 -24 -4 -61
-14 -73 -10 -12 -7 -13 16 -9 26 5 27 4 11 -13 -15 -17 -14 -18 18 -24 45 -8
68 -8 98 1 l25 7 -25 -29 c-14 -16 -30 -32 -37 -36 -6 -5 -9 -17 -6 -28 3 -11
0 -20 -6 -20 -6 0 -11 -8 -11 -17 0 -13 10 -7 33 21 36 43 72 53 112 32 25
-13 24 -29 -1 -19 -8 3 -14 1 -14 -5 0 -5 9 -12 20 -15 22 -6 28 -47 8 -47 -7
0 0 -9 16 -19 21 -14 35 -17 57 -11 35 10 37 5 7 -21 -13 -11 -18 -19 -13 -18
6 1 13 0 18 -1 8 -3 23 -7 33 -9 4 0 1 -7 -5 -15 -9 -10 -8 -16 4 -26 12 -10
15 -10 15 2 0 8 7 23 16 34 12 15 15 16 10 2 -3 -9 0 -19 7 -22 8 -3 6 -10 -7
-20 -18 -15 -13 -42 6 -30 7 4 8 2 4 -4 -4 -7 -16 -12 -26 -12 -13 0 -17 -5
-14 -15 4 -8 1 -15 -6 -15 -6 0 -9 -4 -6 -9 3 -5 -19 -45 -49 -90 -30 -45 -55
-86 -55 -92 0 -5 -4 -9 -10 -9 -5 0 -28 -24 -51 -52 -22 -29 -57 -73 -77 -97
-21 -24 -43 -53 -50 -63 -15 -21 -8 -53 8 -43 7 4 9 -3 6 -20 -4 -23 -2 -25
16 -19 24 7 42 -14 27 -32 -11 -14 5 -29 44 -38 15 -3 27 -13 27 -21 0 -8 9
-15 21 -15 11 0 17 5 14 10 -6 10 2 13 45 14 36 1 50 -14 38 -44 -6 -16 -6
-26 1 -28 5 -2 6 -14 1 -32 -7 -25 -5 -30 12 -36 23 -7 43 15 28 30 -18 18
-11 27 11 16 12 -7 18 -18 15 -26 -6 -15 3 -18 19 -6 17 11 105 118 105 126 0
10 42 45 53 46 9 0 -19 -41 -119 -175 -68 -91 -242 -275 -260 -275 -8 0 -14
-3 -14 -7 0 -15 -47 -63 -61 -63 -10 -1 -9 -4 4 -11 9 -5 17 -17 17 -24 0 -8
3 -14 8 -14 26 4 32 -2 22 -21 -8 -16 -8 -20 4 -20 8 0 18 -9 21 -20 6 -18 8
-18 21 -5 25 24 62 0 60 -39 -1 -27 2 -31 22 -29 12 2 22 -2 22 -8 0 -5 -4 -8
-9 -5 -4 3 -6 -7 -3 -22 5 -20 7 -22 10 -9 4 21 26 18 28 -4 4 -50 4 -51 24
-46 11 3 18 1 14 -4 -3 -5 0 -9 5 -9 6 0 11 -7 11 -15 0 -8 2 -15 5 -15 8 0
57 32 79 52 11 10 24 18 29 18 5 0 47 36 92 81 46 44 87 81 92 81 16 1 48 17
34 17 -11 1 -10 6 3 24 9 12 32 45 51 72 89 127 144 189 246 272 147 121 474
479 466 511 -2 10 -9 16 -17 14 -11 -3 -11 0 0 13 8 9 20 13 33 9 13 -4 17 -3
12 6 -4 7 -17 9 -33 5 -15 -4 -28 -1 -33 6 -6 10 -11 10 -23 -1 -29 -24 -28
-3 2 26 28 28 28 29 13 59 -22 41 -21 41 -29 30 -10 -14 -52 -14 -52 0 0 18
12 26 24 16 15 -13 37 5 71 59 15 24 45 66 67 93 35 45 50 87 30 87 -18 0 -77
-52 -132 -116 -32 -37 -58 -70 -58 -73 2 -22 -4 -41 -12 -41 -7 0 -7 6 -2 18
6 12 3 22 -10 35 -16 15 -18 15 -18 1 0 -9 -6 -14 -12 -11 -7 2 -12 10 -11 16
2 6 -4 11 -12 11 -8 0 -15 5 -15 10 0 7 -6 7 -19 0 -28 -14 -28 -14 -27 23 1
17 -3 33 -9 34 -5 1 -9 -5 -7 -14 2 -10 -2 -14 -11 -10 -10 4 -37 -18 -78 -63
-65 -71 -88 -85 -49 -31 18 26 19 31 5 31 -9 0 -14 4 -10 10 3 5 12 7 20 3 10
-3 15 2 15 16 0 12 -4 22 -10 22 -5 1 -14 2 -19 3 -15 2 -25 16 -12 16 7 0 9
5 6 11 -4 6 -24 -7 -48 -33 -45 -48 -42 -40 20 49 24 34 43 66 43 72 0 5 4 11
8 13 4 2 18 18 30 35 17 24 19 31 8 27 -9 -4 -16 -1 -16 6 0 8 -9 10 -27 5
-27 -6 -27 -6 -10 13 15 17 16 21 3 31 -8 7 -24 13 -35 14 -12 1 -24 9 -27 19
-3 10 -10 16 -15 13 -5 -4 -9 1 -9 9 0 9 -7 16 -15 16 -10 0 -13 9 -10 29 4
35 -19 45 -56 25 -58 -32 -52 -16 31 90 38 49 67 93 63 99 -3 5 -1 7 4 4 18
-11 32 16 22 42 -7 17 -14 22 -29 17 -65 -20 -64 -20 -57 -3 11 30 -2 46 -37
42 -39 -3 -87 -26 -68 -33 17 -5 15 -29 -4 -36 -12 -4 -15 -2 -10 9 3 9 0 15
-9 15 -8 0 -15 -5 -15 -11 0 -6 -7 -9 -15 -5 -8 3 -15 1 -15 -4 0 -22 -26 -8
-28 15 -2 24 7 29 54 28 16 -1 11 22 -9 45 -22 24 -13 33 26 25 21 -4 28 -3
23 5 -4 8 0 12 11 13 13 0 12 3 -7 10 -17 7 -26 7 -28 0 -5 -14 -32 -14 -32
-1 0 6 -13 10 -30 10 -19 0 -29 5 -27 13 1 6 -5 13 -13 13 -8 1 -21 2 -29 3
-11 1 -11 4 -1 16 10 13 9 15 -9 15 -12 0 -38 -19 -63 -47 -137 -153 -152
-159 -38 -14 68 84 147 187 177 229 54 75 54 76 31 85 -13 5 -28 10 -34 11
-23 4 -45 30 -41 48 3 10 1 18 -5 18 -5 0 -6 5 -3 10 3 6 2 10 -3 10 -6 0 -13
16 -16 35 -7 34 -14 40 -46 35 -8 -1 -12 1 -8 6 11 11 -23 32 -44 26 -10 -2
-15 -9 -11 -15 4 -7 0 -8 -12 -4 -9 4 -23 3 -30 -3 -7 -6 -20 -7 -30 -4 -13 5
-14 9 -3 15 10 7 7 11 -9 15 -13 4 -23 11 -23 16 0 5 9 6 20 3 11 -4 20 -2 20
4 0 6 -9 11 -19 11 -28 0 -35 17 -11 23 11 3 19 11 18 19 -2 7 3 12 10 10 8
-1 11 1 9 5 -3 5 35 51 84 103 49 52 89 103 89 113 0 10 4 16 9 12 5 -3 12 -1
15 4 12 18 -21 18 -45 0 -26 -20 -69 -26 -69 -9 0 5 11 12 24 16 16 4 23 11
19 20 -4 11 -8 12 -20 3 -11 -10 -13 -9 -11 2 2 8 -3 12 -12 10 -51 -13 -96
-19 -101 -13 -4 4 2 16 14 27 11 11 16 13 12 5 -8 -13 -7 -13 8 -1 15 12 17
11 17 -3 0 -9 7 -16 15 -16 28 0 15 31 -17 43 -18 6 -36 10 -40 9 -5 -1 -8 3
-8 9 0 6 8 8 19 4 11 -3 22 -1 26 5 5 9 -15 15 -37 11 -5 0 -8 6 -8 14 0 8 -7
15 -16 15 -11 0 -14 5 -10 16 3 9 1 14 -5 12 -6 -2 -10 -7 -9 -12 1 -4 -7 -15
-18 -24 -10 -9 -17 -23 -14 -31 3 -10 0 -12 -11 -8 -10 4 -21 -1 -27 -11 -10
-15 -11 -14 -7 5 5 25 -28 40 -37 16 -9 -22 -7 -25 7 -17 10 6 10 4 0 -7 -11
-11 -15 -11 -25 0 -11 11 -10 14 0 18 6 3 10 9 6 14 -9 15 27 23 47 11 20 -13
32 -2 24 20 -4 9 -19 13 -48 11 -23 -1 -37 1 -31 5 16 10 28 52 15 52 -10 0
-15 -14 -12 -32 0 -5 -6 -8 -15 -8 -10 0 -14 -6 -10 -15 3 -8 1 -15 -3 -15 -5
0 -11 5 -13 12 -3 7 -10 8 -17 4 -11 -7 -11 -10 0 -17 10 -6 8 -9 -8 -9 -14 0
-53 -31 -109 -87 -72 -74 -78 -78 -36 -27 29 34 58 67 67 74 8 7 12 17 8 23
-3 5 -2 7 4 4 5 -3 38 23 73 58 35 35 67 62 71 59 4 -2 11 1 15 7 5 8 3 9 -7
4 -8 -5 -3 3 10 18 13 14 29 23 37 20 8 -3 14 1 14 9 0 13 47 69 119 143 53
54 101 117 96 125 -3 5 0 12 6 16 8 5 9 3 4 -6 -5 -9 -4 -11 3 -6 20 12 13 26
-13 26 -30 0 -32 11 -5 35 11 10 20 26 20 36 0 10 5 21 12 25 7 5 8 3 3 -7 -7
-12 -6 -12 7 -1 9 8 14 20 11 28 -3 7 2 17 11 20 9 3 16 13 16 21 0 8 5 11 10
8 6 -4 23 5 37 19 14 14 20 26 14 26 -7 0 -9 5 -6 10 4 6 10 8 15 5 4 -3 20
10 34 27 14 18 33 40 41 49 8 9 15 23 15 32 0 10 6 14 14 11 7 -3 20 5 28 18
9 13 60 71 115 130 55 59 106 122 113 139 7 17 29 48 49 69 20 21 41 46 46 55
8 13 17 16 34 10 13 -4 19 -10 14 -14 -5 -3 -13 -15 -16 -26 -7 -20 -7 -20 8
-1 13 17 15 18 15 3 0 -20 11 -22 28 -5 9 9 12 8 12 -6 0 -9 -4 -15 -9 -12 -5
3 -11 -3 -14 -14 -7 -26 9 -26 25 -1 11 18 13 18 24 3 10 -14 12 -13 18 6 5
16 15 22 34 22 27 -1 27 -1 5 -13 -16 -9 -19 -16 -12 -28 6 -12 5 -19 -6 -23
-8 -3 -15 -10 -15 -15 0 -6 13 -3 29 7 16 9 27 21 24 26 -4 5 4 2 18 -7 13 -9
31 -17 41 -17 10 0 18 -7 18 -15 0 -8 -7 -15 -15 -15 -8 0 -15 -9 -15 -20 0
-11 5 -20 10 -20 6 0 10 4 10 9 0 5 28 36 62 69 36 35 62 69 64 83 4 35 4 35
13 21 6 -10 11 -9 22 4 11 14 11 16 1 10 -12 -7 -12 -4 -2 14 8 15 15 19 19
11 5 -7 50 35 124 116 148 164 307 321 307 305 0 -7 -10 -23 -23 -35 -12 -12
-55 -61 -96 -109 -40 -48 -83 -96 -96 -105 -12 -10 -77 -85 -143 -168 -67 -82
-162 -195 -211 -250 -60 -66 -93 -111 -97 -132 -7 -36 3 -63 16 -43 11 17 50
3 49 -18 0 -11 -3 -12 -6 -4 -6 15 -33 16 -33 1 0 -5 -5 -7 -11 -3 -7 4 -10 1
-7 -7 3 -9 16 -13 34 -11 25 2 31 -2 41 -28 7 -17 9 -39 6 -47 -5 -12 -2 -15
10 -10 9 3 17 2 17 -2 0 -5 7 -12 16 -15 13 -5 15 -2 11 14 -6 23 11 27 19 5
4 -8 0 -22 -7 -31 -10 -12 -10 -17 0 -23 9 -6 8 -11 -5 -22 -35 -28 -104 -132
-104 -155 0 -33 27 -31 53 4 12 15 39 46 60 69 34 37 38 46 33 80 -4 21 -3 32
0 26 3 -7 15 -13 26 -13 18 0 18 -1 4 -16 -18 -18 -20 -30 -6 -39 6 -3 10 -1
10 6 0 7 8 3 18 -8 20 -24 59 -35 69 -21 4 7 1 8 -8 4 -10 -6 -10 -4 1 6 8 8
21 19 27 26 7 7 11 9 8 6 -7 -10 27 -33 48 -34 9 0 17 -8 17 -17 0 -15 2 -15
9 -4 8 12 14 12 40 1 32 -13 41 -34 19 -43 -7 -3 -3 -6 10 -6 12 -1 22 -6 22
-12 0 -5 -4 -8 -9 -4 -5 3 -12 1 -16 -5 -10 -16 31 -12 45 5 12 15 35 11 25
-5 -3 -5 3 -11 14 -15 11 -3 22 -12 25 -20 6 -16 -1 -24 -53 -58 -67 -43 -130
-167 -86 -167 23 0 163 141 167 167 2 16 7 20 17 14 10 -7 11 -13 2 -30 -11
-20 -10 -21 13 -15 16 4 26 2 26 -5 0 -6 8 -8 18 -4 21 7 72 53 72 65 0 5 35
45 77 89 70 72 79 79 90 63 7 -10 26 -17 43 -17 18 0 26 -3 19 -8 -17 -10 7
-39 32 -39 22 0 24 -11 7 -28 -9 -9 -7 -12 11 -12 14 0 20 4 15 12 -4 7 -3 8
5 4 7 -5 9 -12 3 -19 -5 -7 -39 -50 -76 -97 -51 -65 -66 -92 -66 -117 0 -19 5
-33 12 -33 6 0 47 34 90 76 46 45 84 74 92 71 7 -3 30 -2 50 3 27 6 36 5 36
-5 0 -7 -5 -15 -12 -17 -6 -2 -8 -10 -4 -16 11 -18 26 -15 27 6 0 13 2 14 6 2
3 -8 10 -18 15 -21 8 -5 15 -25 17 -52 1 -5 10 -5 21 -2 11 4 20 2 20 -4 0 -6
12 -11 26 -11 19 0 25 -4 20 -15 -7 -20 39 -65 67 -65 18 0 19 -2 7 -10 -13
-8 -13 -10 1 -10 33 0 30 -42 -7 -87 -19 -24 -39 -43 -45 -43 -5 0 -15 -16
-23 -35 -8 -19 -22 -35 -30 -35 -23 0 -29 -18 -12 -41 8 -12 12 -27 10 -34 -3
-6 2 -18 11 -25 8 -7 15 -18 15 -24 1 -20 59 -76 80 -76 11 0 20 -4 20 -10 0
-5 10 -10 23 -11 21 0 21 -1 -3 -11 -24 -11 -24 -12 -4 -15 12 -2 24 -13 27
-24 3 -11 14 -23 24 -25 10 -3 27 -18 39 -35 l21 -29 49 36 c41 30 36 23 -31
-43 -44 -44 -101 -103 -127 -132 -33 -37 -53 -51 -64 -47 -12 4 -15 2 -10 -9
3 -8 1 -15 -4 -15 -6 0 -10 -6 -10 -13 0 -8 -11 -29 -25 -48 -104 -140 -117
-162 -117 -187 1 -15 2 -42 2 -59 1 -30 9 -38 35 -34 6 1 2 -5 -8 -13 -18 -14
-17 -14 2 -21 12 -3 18 -11 15 -17 -4 -6 -2 -8 3 -5 6 4 25 -1 43 -10 18 -9
41 -16 51 -17 9 -1 29 -11 43 -23 15 -13 32 -23 39 -23 6 0 35 -13 64 -29 28
-16 63 -31 76 -35 21 -5 24 -3 20 13 -3 13 2 24 16 33 12 7 21 20 21 30 0 9 4
19 8 22 4 3 21 30 37 62 19 37 74 104 158 193 137 143 392 430 465 522 23 30
79 101 124 159 45 58 110 138 145 178 88 101 100 121 82 133 -12 7 -12 9 0 9
8 0 11 3 8 7 -4 3 -2 12 3 18 8 10 3 16 -20 23 -16 6 -30 17 -30 25 0 8 -7 20
-15 27 -10 9 -15 9 -15 1 0 -6 -6 -11 -14 -11 -8 0 -16 -3 -19 -7 -2 -5 -2 -2
-1 5 5 17 -7 43 -16 37 -5 -3 -19 -1 -32 4 l-23 10 23 0 c12 1 22 6 22 12 0 6
-9 8 -21 4 -15 -5 -19 -4 -14 4 5 8 -1 10 -19 5 -26 -6 -37 10 -13 19 7 4 6 6
-5 6 -9 1 -19 -5 -22 -11 -3 -7 -4 6 -2 30 2 23 -1 42 -5 42 -5 0 -9 -4 -9
-10 0 -5 -11 -10 -25 -10 -14 0 -25 5 -25 10 0 6 7 10 16 10 8 0 13 4 10 8 -3
5 19 33 49 62 39 38 53 60 49 72 -4 14 0 18 20 18 19 0 26 5 26 20 0 15 -7 20
-25 20 -16 0 -25 6 -25 15 0 8 6 15 13 15 8 0 8 3 -2 9 -8 5 -29 7 -48 4 -25
-4 -33 -2 -33 9 0 8 -6 23 -14 33 -12 16 -16 17 -29 6 -9 -7 -21 -10 -27 -6
-19 12 1 25 38 25 46 0 26 16 -32 26 l-40 6 30 14 c18 9 21 12 7 8 -14 -3 -23
-1 -23 6 0 6 -6 10 -12 7 -7 -2 -13 -8 -12 -13 0 -5 -10 -19 -23 -31 -12 -12
-23 -20 -23 -18 0 10 25 60 33 66 4 3 2 18 -4 33 -11 22 -14 24 -21 11 -7 -12
-13 -13 -30 -4 -15 8 -17 14 -9 22 7 7 16 12 22 12 5 0 8 2 7 5 -2 3 3 12 9
20 7 8 36 44 65 80 29 36 58 71 65 78 7 7 13 14 13 15 0 1 -23 1 -50 1 -56 -2
-68 6 -39 24 15 10 19 10 20 0 1 -7 4 1 8 17 7 30 -9 53 -28 41 -14 -9 -23 25
-10 40 9 11 9 14 0 14 -7 0 -9 5 -5 13 5 8 3 8 -9 -2 -9 -7 -14 -18 -10 -24 4
-6 1 -7 -6 -3 -7 5 -20 1 -30 -8 -16 -15 -20 -15 -31 -1 -10 12 -8 16 13 24
14 5 28 15 32 20 4 8 -2 8 -21 1 -15 -6 -29 -8 -31 -6 -8 7 8 27 17 21 4 -2
10 6 12 19 4 21 2 23 -12 14 -10 -6 -21 -21 -27 -32 -5 -12 -8 -15 -6 -8 1 7
-8 12 -22 12 -36 0 -39 16 -5 30 36 15 40 33 4 20 -34 -13 -34 -13 -34 11 0
11 -4 18 -9 14 -5 -3 -12 -2 -14 2 -3 5 -19 8 -37 7 -22 -1 -43 -12 -75 -44
-24 -23 -48 -39 -54 -36 -6 4 -11 3 -11 -1 0 -5 -12 -8 -27 -7 -16 0 -27 5
-25 10 2 5 10 8 18 8 11 -2 12 1 4 11 -8 9 -7 14 1 17 7 2 9 10 5 16 -11 19
-21 14 -32 -15 l-10 -28 -12 22 c-11 19 -10 22 3 17 8 -4 15 -2 15 4 0 6 -11
9 -25 8 -14 -2 -30 3 -36 10 -6 8 -16 11 -23 8 -6 -3 -1 3 12 12 33 25 29 47
-8 39 -26 -6 -30 -4 -30 14 0 12 -6 21 -14 21 -7 0 -19 6 -26 14 -9 12 -2 28
39 83 27 37 56 75 63 83 42 50 42 49 13 62 -19 8 -25 17 -21 31 3 12 0 17 -8
14 -8 -3 -26 1 -41 9 -24 12 -26 12 -21 -1 9 -25 -10 -17 -22 9 -9 20 -16 23
-46 19 -22 -2 -36 1 -36 8 0 6 6 9 14 6 8 -3 22 3 32 14 24 27 7 43 -30 29
-21 -8 -28 -7 -32 5 -4 8 -15 15 -25 15 -10 0 -19 3 -20 8 0 4 -2 17 -3 29 -1
12 3 24 10 27 7 3 10 14 7 25 -4 17 -9 19 -25 10 -14 -7 -23 -7 -33 1 -10 8
-26 -4 -72 -56 -80 -92 -91 -104 -104 -104 -5 0 -7 -5 -4 -10 9 -15 -396 -480
-634 -728 -110 -115 -66 -50 65 93 109 120 204 242 204 261 0 8 4 14 10 14 5
0 14 9 20 21 10 19 10 20 -8 10 -22 -12 -82 3 -82 20 0 5 -6 9 -14 9 -8 0 -17
8 -19 18 -4 16 -5 16 -6 0 -1 -22 -31 -24 -31 -2 0 8 7 22 15 30 8 9 15 21 15
27 0 7 -4 6 -10 -3 -9 -13 -11 -13 -19 0 -5 8 -7 18 -4 23 3 5 -4 4 -15 -2
-15 -8 -22 -8 -25 2 -4 9 -8 9 -14 1 -4 -7 -25 -11 -46 -11 -34 1 -36 3 -21
14 17 12 17 13 -2 13 -15 1 -13 4 11 17 l29 16 -24 9 c-16 6 -26 5 -32 -4 -5
-8 -11 -9 -15 -3 -5 6 -15 10 -23 10 -21 0 -21 43 -1 65 34 36 61 71 61 79 0
6 17 29 38 53 51 60 102 164 108 222 3 28 -15 56 -35 56 -6 0 -12 7 -12 15 -3
35 -6 40 -18 37 -16 -3 -3 19 22 37 22 16 77 99 77 117 0 39 -67 57 -107 29z
m747 -559 c0 -3 -4 -8 -10 -11 -5 -3 -10 -1 -10 4 0 6 5 11 10 11 6 0 10 -2
10 -4z m168 -56 c36 -33 39 -40 16 -40 -8 0 -13 -4 -10 -9 3 -5 0 -11 -7 -14
-8 -3 -14 3 -14 14 -1 10 4 19 10 20 7 0 1 6 -13 12 -14 7 -26 20 -28 30 -4
24 8 21 46 -13z m-2078 -144 c0 -3 -4 -8 -10 -11 -5 -3 -10 -1 -10 4 0 6 5 11
10 11 6 0 10 -2 10 -4z m375 -97 c-4 -5 -12 -9 -19 -9 -8 0 -16 -9 -19 -20 -4
-14 -10 -18 -22 -13 -17 6 -17 7 0 19 9 7 14 17 11 23 -4 5 4 11 16 13 28 5
40 0 33 -13z m1072 -145 c-3 -3 -12 -4 -19 -1 -8 3 -5 6 6 6 11 1 17 -2 13 -5z
m1016 -11 c-7 -2 -21 -2 -30 0 -10 3 -4 5 12 5 17 0 24 -2 18 -5z m-2108 -13
c7 -12 -2 -12 -30 0 -19 8 -19 9 2 9 12 1 25 -3 28 -9z m1678 -5 c-3 -9 -8
-14 -10 -11 -3 3 -2 9 2 15 9 16 15 13 8 -4z m-1820 -6 c-6 -6 -9 -18 -5 -27
4 -11 1 -14 -11 -9 -11 4 -18 -1 -22 -14 -8 -25 -25 -25 -18 1 3 11 17 29 31
40 27 22 43 27 25 9z m1968 -42 c-10 -9 -11 -8 -5 6 3 10 9 15 12 12 3 -3 0
-11 -7 -18z m-1767 -28 c-3 -5 -10 -7 -15 -3 -5 3 -7 10 -3 15 3 5 10 7 15 3
5 -3 7 -10 3 -15z m-204 -19 c0 -5 -4 -10 -10 -10 -5 0 -10 5 -10 10 0 6 5 10
10 10 6 0 10 -4 10 -10z m1965 0 c-3 -5 -16 -10 -28 -9 -20 1 -20 2 3 9 14 4
26 8 28 9 2 1 0 -3 -3 -9z m-1865 -10 c0 -10 -70 -19 -75 -9 -7 10 1 14 39 16
20 1 36 -2 36 -7z m138 -25 c-3 -3 -9 2 -12 12 -6 14 -5 15 5 6 7 -7 10 -15 7
-18z m2182 4 c0 -5 -7 -9 -15 -9 -15 0 -20 12 -9 23 8 8 24 -1 24 -14z m-2230
-28 c0 -6 -4 -13 -10 -16 -5 -3 -10 1 -10 9 0 9 5 16 10 16 6 0 10 -4 10 -9z
m2000 -11 c0 -5 -5 -10 -11 -10 -5 0 -7 5 -4 10 3 6 8 10 11 10 2 0 4 -4 4
-10z m213 -31 c-14 -14 -43 0 -36 17 4 10 10 11 25 3 13 -7 17 -14 11 -20z
m97 -39 c0 -5 -4 -10 -10 -10 -5 0 -10 5 -10 10 0 6 5 10 10 10 6 0 10 -4 10
-10z m-3735 -100 c3 -5 4 -14 0 -20 -8 -13 -35 -1 -35 16 0 16 26 19 35 4z
m162 -126 c-3 -3 -12 -4 -19 -1 -8 3 -5 6 6 6 11 1 17 -2 13 -5z m3433 -13 c0
-12 -20 -25 -27 -18 -7 7 6 27 18 27 5 0 9 -4 9 -9z m-3420 -26 c0 -8 -7 -15
-16 -15 -14 0 -14 3 -4 15 7 8 14 15 16 15 2 0 4 -7 4 -15z m-57 -10 c-3 -9
-8 -14 -10 -11 -3 3 -2 9 2 15 9 16 15 13 8 -4z m1358 -62 c-9 -16 -10 -14
-11 12 0 21 3 26 11 18 8 -8 8 -16 0 -30z m214 -113 c-3 -5 -11 -10 -16 -10
-6 0 -7 5 -4 10 3 6 11 10 16 10 6 0 7 -4 4 -10z m395 -10 c0 -5 -2 -10 -4
-10 -3 0 -8 5 -11 10 -3 6 -1 10 4 10 6 0 11 -4 11 -10z m1750 0 c0 -5 -4 -10
-9 -10 -6 0 -13 5 -16 10 -3 6 1 10 9 10 9 0 16 -4 16 -10z m-2050 -4 c0 -2 3
-13 6 -23 5 -15 4 -15 -5 -3 -6 9 -22 14 -42 12 -21 -3 -29 0 -25 7 7 10 66
16 66 7z m2055 -36 c3 -6 -1 -7 -9 -4 -18 7 -21 14 -7 14 6 0 13 -4 16 -10z
m-1945 -44 c0 -2 -7 -6 -15 -10 -8 -3 -15 -1 -15 4 0 6 7 10 15 10 8 0 15 -2
15 -4z m-2325 -26 c3 -5 -1 -10 -9 -10 -9 0 -16 5 -16 10 0 6 4 10 9 10 6 0
13 -4 16 -10z m2955 -10 c0 -5 -4 -10 -10 -10 -5 0 -10 5 -10 10 0 6 5 10 10
10 6 0 10 -4 10 -10z m-3030 -30 c0 -5 -7 -10 -16 -10 -8 0 -12 5 -9 10 3 6
10 10 16 10 5 0 9 -4 9 -10z m2995 -30 c3 -5 -1 -10 -9 -10 -9 0 -16 5 -16 10
0 6 4 10 9 10 6 0 13 -4 16 -10z m1324 -97 c2 -2 -8 -3 -22 -3 -20 0 -25 4
-21 15 5 13 9 13 23 3 9 -7 18 -14 20 -15z m-62 -5 c-3 -8 -6 -5 -6 6 -1 11 2
17 5 13 3 -3 4 -12 1 -19z m-42 -18 c-3 -5 -11 -10 -16 -10 -6 0 -7 5 -4 10 3
6 11 10 16 10 6 0 7 -4 4 -10z m-4130 -40 c3 -5 1 -10 -4 -10 -6 0 -11 5 -11
10 0 6 2 10 4 10 3 0 8 -4 11 -10z m662 -296 c-3 -3 -12 -4 -19 -1 -8 3 -5 6
6 6 11 1 17 -2 13 -5z m167 -20 c3 -8 2 -12 -4 -9 -6 3 -10 10 -10 16 0 14 7
11 14 -7z m-246 -59 c-22 -21 -58 -28 -58 -12 0 19 4 22 40 23 26 1 29 -1 18
-11z m306 -43 c2 -4 -10 -9 -27 -9 -26 -2 -28 0 -12 7 26 11 33 12 39 2z
m-350 -23 c-3 -5 -11 -9 -19 -9 -8 0 -16 4 -19 9 -3 5 5 9 19 9 14 0 22 -4 19
-9z m56 7 c0 -3 -4 -8 -10 -11 -5 -3 -10 -1 -10 4 0 6 5 11 10 11 6 0 10 -2
10 -4z m58 -25 c9 -5 2 -8 -20 -9 -23 -1 -28 2 -18 8 18 12 22 12 38 1z m202
-1 c0 -5 -2 -10 -4 -10 -3 0 -8 5 -11 10 -3 6 -1 10 4 10 6 0 11 -4 11 -10z
m-46 -29 c7 -11 -14 -20 -31 -13 -7 2 -13 8 -13 13 0 12 37 12 44 0z m76 -9
c-19 -10 -37 -16 -40 -14 -9 7 34 32 54 32 16 0 12 -5 -14 -18z m-146 -27
c-14 -10 -22 -10 -32 -2 -10 8 -7 13 15 22 33 14 44 0 17 -20z m-439 -35 c3
-5 -1 -10 -9 -10 -9 0 -16 5 -16 10 0 6 4 10 9 10 6 0 13 -4 16 -10z m535 -4
c-6 -8 -18 -12 -27 -9 -12 5 -12 7 -1 14 7 5 19 9 27 9 11 0 11 -3 1 -14z
m-317 -56 c-6 -22 -21 -35 -30 -27 -3 3 -1 12 3 19 5 7 9 16 10 21 1 4 2 10 3
13 0 3 5 3 10 0 5 -3 7 -15 4 -26z m-73 -80 c0 -28 -1 -29 -25 -18 -19 8 -22
14 -13 20 7 4 9 8 5 8 -15 0 4 20 19 20 9 0 14 -11 14 -30z m-40 -30 c0 -5 -4
-10 -10 -10 -5 0 -10 5 -10 10 0 6 5 10 10 10 6 0 10 -4 10 -10z m155 -27 c-2
-16 -4 -29 -4 -31 -1 -1 -11 3 -23 9 l-21 11 24 19 c13 10 25 19 26 19 1 0 0
-12 -2 -27z m63 -48 c-3 -3 -9 2 -12 12 -6 14 -5 15 5 6 7 -7 10 -15 7 -18z
m39 19 c-3 -3 -12 -4 -19 -1 -8 3 -5 6 6 6 11 1 17 -2 13 -5z m296 -35 c-7
-24 -15 -33 -32 -34 -22 -2 -23 -1 -6 11 11 8 16 21 12 33 -3 13 1 21 12 24
23 5 23 3 14 -34z m-131 -1 c-4 -17 -2 -20 11 -15 11 4 17 1 17 -8 0 -16 -27
-20 -48 -6 -12 7 -12 12 -1 30 18 27 29 27 21 -1z m-255 -1 c0 -7 -9 -14 -20
-14 -19 -2 -19 -2 -1 12 11 8 19 15 20 15 0 0 1 -6 1 -13z m443 -35 c0 -13 -3
-12 -15 4 -19 25 -19 40 0 24 8 -7 15 -20 15 -28z m-380 8 c0 -13 -11 -13 -30
0 -12 8 -11 10 8 10 12 0 22 -4 22 -10z m410 -41 c0 -5 -6 -8 -12 -6 -7 1 -12
-4 -10 -10 1 -7 -7 -13 -18 -13 -12 0 -20 7 -20 18 0 14 2 14 9 3 7 -11 11
-10 22 7 13 20 29 21 29 1z m-140 -14 c-7 -8 -18 -15 -24 -15 -6 0 -2 7 8 15
25 19 32 19 16 0z m-400 1 c0 -3 -4 -8 -10 -11 -5 -3 -10 -1 -10 4 0 6 5 11
10 11 6 0 10 -2 10 -4z m-42 -44 c-25 -5 -37 6 -19 18 8 5 19 3 26 -3 10 -10
9 -13 -7 -15z m605 -19 c-3 -8 -12 -12 -20 -9 -8 3 -19 6 -24 6 -22 0 1 15 24
16 19 1 24 -2 20 -13z m27 -47 c0 -2 -9 -6 -20 -9 -11 -3 -18 -1 -14 4 5 9 34
13 34 5z m50 -327 c0 -5 -13 -8 -29 -7 -22 2 -27 5 -20 14 11 13 49 7 49 -7z
m-170 -40 c0 -15 -22 -21 -31 -8 -14 22 -11 28 11 22 11 -3 20 -9 20 -14z
m300 7 c0 -19 -27 -28 -33 -11 -7 15 1 25 20 25 7 0 13 -6 13 -14z m-640 -46
c0 -5 -4 -10 -10 -10 -5 0 -10 5 -10 10 0 6 5 10 10 10 6 0 10 -4 10 -10z
m605 0 c3 -5 -1 -10 -9 -10 -9 0 -16 5 -16 10 0 6 4 10 9 10 6 0 13 -4 16 -10z
m55 0 c0 -5 -4 -10 -10 -10 -5 0 -10 5 -10 10 0 6 5 10 10 10 6 0 10 -4 10
-10z m-990 -24 c0 -2 -9 -6 -20 -9 -11 -3 -20 -1 -20 4 0 5 9 9 20 9 11 0 20
-2 20 -4z m810 -25 c0 -5 3 -18 7 -28 6 -17 5 -17 -15 1 -26 22 -28 36 -7 36
8 0 15 -4 15 -9z m-685 -121 c3 -5 1 -10 -4 -10 -6 0 -11 5 -11 10 0 6 2 10 4
10 3 0 8 -4 11 -10z m645 -14 c0 -2 -7 -6 -15 -10 -8 -3 -15 -1 -15 4 0 6 7
10 15 10 8 0 15 -2 15 -4z m-563 -42 c-3 -3 -12 -4 -19 -1 -8 3 -5 6 6 6 11 1
17 -2 13 -5z m776 -30 c-7 -19 -23 -7 -23 18 0 17 3 18 14 8 8 -6 12 -18 9
-26z m-48 -4 c3 -5 1 -10 -4 -10 -6 0 -11 5 -11 10 0 6 2 10 4 10 3 0 8 -4 11
-10z m-611 -15 c-4 -8 -8 -15 -10 -15 -2 0 -4 7 -4 15 0 8 4 15 10 15 5 0 7
-7 4 -15z m221 -85 c3 -5 1 -10 -4 -10 -6 0 -11 5 -11 10 0 6 2 10 4 10 3 0 8
-4 11 -10z m-170 -79 c-3 -6 -11 -11 -17 -11 -6 0 -6 6 2 15 14 17 26 13 15
-4z m635 -224 c0 -2 -10 -12 -22 -23 l-23 -19 19 23 c18 21 26 27 26 19z m340
-7 c0 -5 -5 -10 -11 -10 -5 0 -7 5 -4 10 3 6 8 10 11 10 2 0 4 -4 4 -10z
m-265 -70 c-3 -5 -10 -10 -16 -10 -5 0 -9 5 -9 10 0 6 7 10 16 10 8 0 12 -4 9
-10z m398 -20 c3 -11 1 -20 -4 -20 -5 0 -9 9 -9 20 0 11 2 20 4 20 2 0 6 -9 9
-20z m-613 -79 c0 -5 -7 -12 -16 -15 -14 -5 -15 -4 -4 9 14 17 20 19 20 6z
m-642 -328 c-6 -7 -14 -13 -18 -13 -3 0 -7 6 -7 13 0 7 8 13 18 13 13 0 15 -3
7 -13z m42 -33 c0 -5 -4 -10 -9 -10 -6 0 -13 5 -16 10 -3 6 1 10 9 10 9 0 16
-4 16 -10z m10 -518 c0 -5 -7 -9 -15 -9 -8 0 -15 4 -15 9 0 4 7 8 15 8 8 0 15
-4 15 -8z m57 -68 c-3 -3 -12 -4 -19 -1 -8 3 -5 6 6 6 11 1 17 -2 13 -5z m43
-50 c0 -3 -4 -3 -9 1 -6 3 -14 -2 -19 -11 -6 -11 -11 -13 -16 -5 -4 6 -2 11 4
11 7 0 10 7 6 15 -4 13 -2 14 14 5 11 -6 20 -13 20 -16z"/>
<path d="M7638 8851 c-47 -56 -101 -148 -93 -160 12 -20 33 -11 67 28 47 56
101 148 93 160 -12 20 -33 11 -67 -28z"/>
<path d="M6840 8623 c-71 -72 -93 -120 -70 -148 31 -37 75 -8 169 114 51 66
52 95 2 99 -30 3 -41 -4 -101 -65z"/>
<path d="M7392 8674 c1 -9 9 -19 16 -22 9 -3 13 2 10 14 -1 9 -9 19 -16 22 -9
3 -13 -2 -10 -14z"/>
<path d="M7140 8620 c-8 -5 -10 -10 -5 -10 6 0 17 5 25 10 8 5 11 10 5 10 -5
0 -17 -5 -25 -10z"/>
<path d="M7540 8556 c0 -8 7 -16 15 -20 10 -4 15 1 15 14 0 11 -7 20 -15 20
-8 0 -15 -6 -15 -14z"/>
<path d="M8183 8428 c-65 -103 -85 -178 -47 -178 30 0 104 135 104 191 0 43
-25 36 -57 -13z"/>
<path d="M7755 8369 c-58 -53 -88 -103 -80 -129 12 -39 42 -21 114 69 39 49
71 92 71 95 0 3 -14 6 -30 6 -22 0 -43 -12 -75 -41z"/>
<path d="M6545 8380 c-3 -5 1 -10 9 -10 9 0 16 5 16 10 0 6 -4 10 -9 10 -6 0
-13 -4 -16 -10z"/>
<path d="M6798 8253 c7 -3 16 -2 19 1 4 3 -2 6 -13 5 -11 0 -14 -3 -6 -6z"/>
<path d="M7613 8165 c-9 -25 4 -29 17 -6 7 15 7 21 0 21 -6 0 -13 -7 -17 -15z"/>
<path d="M7893 8165 c0 -8 4 -12 9 -9 4 3 8 9 8 15 0 5 -4 9 -8 9 -5 0 -9 -7
-9 -15z"/>
<path d="M7935 8130 c-3 -5 -1 -10 4 -10 6 0 11 5 11 10 0 6 -2 10 -4 10 -3 0
-8 -4 -11 -10z"/>
<path d="M4745 8081 c-38 -23 -146 -127 -169 -163 -21 -32 -15 -58 12 -58 26
0 202 197 202 226 0 19 -9 18 -45 -5z"/>
<path d="M8145 7940 c-3 -6 1 -7 9 -4 18 7 21 14 7 14 -6 0 -13 -4 -16 -10z"/>
<path d="M5737 7863 c-12 -12 -7 -22 8 -17 8 4 15 10 15 15 0 11 -14 12 -23 2z"/>
<path d="M4396 7851 c-6 -9 35 -24 43 -15 6 5 -18 24 -31 24 -4 0 -9 -4 -12
-9z"/>
<path d="M5680 7851 c0 -5 5 -13 10 -16 6 -3 10 -2 10 4 0 5 -4 13 -10 16 -5
3 -10 2 -10 -4z"/>
<path d="M4385 7820 c3 -5 8 -10 11 -10 2 0 4 5 4 10 0 6 -5 10 -11 10 -5 0
-7 -4 -4 -10z"/>
<path d="M4355 7800 c3 -5 8 -10 11 -10 2 0 4 5 4 10 0 6 -5 10 -11 10 -5 0
-7 -4 -4 -10z"/>
<path d="M5769 7799 c16 -6 28 -6 35 1 7 7 -1 10 -24 9 -33 0 -34 -1 -11 -10z"/>
<path d="M5556 7727 c-68 -71 -102 -126 -93 -151 12 -30 41 -16 102 47 67 71
101 126 92 151 -12 29 -39 17 -101 -47z"/>
<path d="M8288 7751 c-45 -36 -73 -131 -39 -131 28 0 98 108 88 134 -8 21 -19
20 -49 -3z"/>
<path d="M5740 7599 c0 -5 5 -7 10 -4 6 3 10 8 10 11 0 2 -4 4 -10 4 -5 0 -10
-5 -10 -11z"/>
<path d="M5810 7529 c7 -11 14 -18 17 -15 8 8 -5 36 -17 36 -7 0 -7 -6 0 -21z"/>
<path d="M8200 7530 c-9 -6 -10 -10 -3 -10 6 0 15 5 18 10 8 12 4 12 -15 0z"/>
<path d="M6110 7350 c0 -5 5 -10 10 -10 6 0 10 5 10 10 0 6 -4 10 -10 10 -5 0
-10 -4 -10 -10z"/>
<path d="M8438 7288 c-33 -35 -63 -73 -69 -86 -12 -32 5 -62 36 -62 49 0 145
123 145 185 0 20 -5 25 -27 25 -20 0 -42 -16 -85 -62z"/>
<path d="M5277 7201 c-44 -48 -70 -98 -63 -117 6 -15 36 -20 36 -5 0 5 25 36
55 70 60 68 68 91 31 91 -15 0 -37 -15 -59 -39z"/>
<path d="M3752 6952 c-59 -58 -86 -105 -78 -138 4 -13 10 -24 14 -24 4 0 48
38 97 85 77 72 88 87 79 102 -22 36 -58 28 -112 -25z"/>
<path d="M6995 6926 c-29 -29 -65 -98 -65 -126 0 -23 26 -27 51 -7 8 7 34 36
57 65 34 44 40 57 32 73 -14 26 -46 24 -75 -5z"/>
<path d="M4770 6929 c0 -5 5 -7 10 -4 6 3 10 8 10 11 0 2 -4 4 -10 4 -5 0 -10
-5 -10 -11z"/>
<path d="M4900 6909 c0 -5 5 -7 10 -4 6 3 10 8 10 11 0 2 -4 4 -10 4 -5 0 -10
-5 -10 -11z"/>
<path d="M4700 6890 c0 -5 6 -10 14 -10 8 0 18 5 21 10 3 6 -3 10 -14 10 -12
0 -21 -4 -21 -10z"/>
<path d="M4686 6843 c-4 -9 -4 -18 -2 -21 8 -7 36 6 36 17 0 16 -28 20 -34 4z"/>
<path d="M4749 6834 c-12 -14 -11 -16 5 -13 11 2 21 10 24 17 5 17 -13 15 -29
-4z"/>
<path d="M4827 6816 c-3 -8 0 -17 8 -20 14 -5 28 17 18 28 -10 10 -21 7 -26
-8z"/>
<path d="M4936 6807 c3 -10 9 -15 12 -12 3 3 0 11 -7 18 -10 9 -11 8 -5 -6z"/>
<path d="M5018 6713 c-17 -4 -34 -33 -19 -33 4 0 16 9 26 20 10 11 16 19 14
19 -2 -1 -11 -3 -21 -6z"/>
<path d="M5262 6583 c-59 -64 -95 -127 -87 -153 7 -23 24 -26 47 -7 19 14 138
186 138 199 0 4 -12 8 -27 8 -19 0 -39 -14 -71 -47z"/>
<path d="M7092 6488 c-15 -19 -82 -156 -82 -168 0 -40 94 34 131 104 19 37 21
47 10 60 -16 19 -45 21 -59 4z"/>
<path d="M5090 6217 c0 -7 9 -13 20 -14 18 -2 18 0 6 13 -18 17 -26 18 -26 1z"/>
<path d="M4211 6203 c-23 -16 -23 -17 -5 -24 10 -4 29 -5 42 -2 12 3 22 0 22
-6 0 -6 7 -8 15 -5 23 9 -5 32 -37 30 -21 -2 -25 1 -16 11 14 18 7 16 -21 -4z"/>
<path d="M5060 6210 c0 -5 5 -10 10 -10 6 0 10 5 10 10 0 6 -4 10 -10 10 -5 0
-10 -4 -10 -10z"/>
<path d="M5061 6171 c-13 -24 -14 -24 55 -25 43 -1 48 1 35 12 -15 11 -15 12
0 6 10 -3 20 -1 24 5 3 6 3 11 -2 12 -4 0 -25 2 -45 5 -26 2 -38 -1 -38 -9 0
-8 -3 -8 -9 2 -7 11 -11 9 -20 -8z"/>
<path d="M4360 6121 c0 -5 -10 -12 -22 -14 -22 -4 -22 -4 -2 -6 12 0 27 6 34
14 9 10 9 15 1 15 -6 0 -11 -4 -11 -9z"/>
<path d="M5462 6082 c-10 -10 -31 -44 -46 -75 -22 -45 -25 -59 -16 -76 19 -37
29 -30 101 69 22 30 38 64 37 75 -4 28 -51 32 -76 7z"/>
<path d="M4448 6053 c-24 -6 -23 -23 2 -23 11 0 20 7 20 15 0 8 -1 14 -2 14
-2 -1 -11 -3 -20 -6z"/>
<path d="M4138 5923 c-34 -37 -78 -109 -78 -128 0 -22 19 -18 41 8 64 75 99
123 99 134 0 22 -35 14 -62 -14z"/>
<path d="M5050 5885 c0 -9 6 -12 15 -9 8 4 12 10 9 15 -8 14 -24 10 -24 -6z"/>
<path d="M7072 5625 c-40 -103 -20 -125 50 -56 32 33 39 46 36 73 -3 29 -7 33
-34 36 -29 3 -32 0 -52 -53z"/>
<path d="M5655 5627 c-45 -25 -85 -78 -85 -113 0 -30 36 -33 45 -4 4 11 24 41
46 66 21 25 39 52 39 60 0 8 -1 14 -2 13 -2 0 -21 -10 -43 -22z"/>
<path d="M4130 5530 c0 -5 5 -10 10 -10 6 0 10 5 10 10 0 6 -4 10 -10 10 -5 0
-10 -4 -10 -10z"/>
<path d="M5450 5340 c0 -5 5 -10 11 -10 5 0 7 5 4 10 -3 6 -8 10 -11 10 -2 0
-4 -4 -4 -10z"/>
<path d="M4422 5315 c-11 -12 -10 -15 3 -15 8 0 15 7 15 15 0 18 -2 18 -18 0z"/>
<path d="M5408 5323 c7 -3 16 -2 19 1 4 3 -2 6 -13 5 -11 0 -14 -3 -6 -6z"/>
<path d="M5480 5320 c0 -5 5 -10 10 -10 6 0 10 5 10 10 0 6 -4 10 -10 10 -5 0
-10 -4 -10 -10z"/>
<path d="M5477 5289 c-9 -6 -17 -14 -17 -19 0 -16 30 -11 37 5 8 21 1 25 -20
14z"/>
<path d="M4200 5238 c-46 -45 -110 -146 -110 -175 0 -35 27 -28 54 15 13 22
47 66 75 100 28 34 51 68 51 77 0 25 -34 17 -70 -17z"/>
<path d="M4532 5251 c-11 -6 -10 -10 5 -16 17 -7 17 -8 -2 -15 -18 -8 -17 -9
8 -9 30 -1 33 7 15 32 -9 11 -18 14 -26 8z"/>
<path d="M4610 5150 c0 -5 5 -10 10 -10 6 0 10 5 10 10 0 6 -4 10 -10 10 -5 0
-10 -4 -10 -10z"/>
<path d="M4411 4878 c-64 -68 -99 -164 -64 -175 23 -8 123 128 126 173 3 41
-25 42 -62 2z"/>
<path d="M2605 4791 c-45 -20 -142 -120 -151 -156 -9 -38 0 -80 18 -83 12 -2
25 12 43 49 15 28 55 82 91 120 85 90 84 109 -1 70z"/>
<path d="M3086 4650 c-24 -22 -67 -76 -96 -120 -29 -44 -58 -80 -64 -80 -16 0
-32 13 -39 32 -4 11 -13 15 -26 11 -10 -3 -28 0 -38 6 -16 9 -14 10 12 11 25
1 27 2 13 11 -10 5 -18 14 -18 20 0 5 -9 19 -20 31 -11 12 -20 18 -20 13 0 -5
7 -17 17 -27 19 -21 14 -31 -11 -22 -9 4 -15 12 -12 19 2 6 0 18 -5 26 -7 12
-12 11 -28 -6 -35 -36 -1591 -1970 -1591 -1977 0 -5 9 -8 20 -8 13 0 22 -9 26
-25 4 -16 13 -25 25 -25 11 0 22 -7 25 -15 4 -8 10 -15 14 -15 12 0 68 -58 64
-65 -2 -3 -1 -3 3 0 3 3 15 -2 25 -12 10 -9 18 -13 18 -9 0 4 10 -2 22 -14 12
-11 27 -20 34 -20 6 0 17 -13 24 -29 12 -29 8 -35 -151 -243 -89 -117 -167
-219 -173 -227 -7 -10 -6 -16 7 -26 9 -6 14 -15 10 -18 -3 -4 1 -7 9 -7 9 0
18 -9 21 -20 3 -13 11 -18 20 -14 10 3 20 -3 27 -15 6 -12 17 -21 25 -21 8 0
15 -4 15 -9 0 -5 11 -12 24 -15 14 -3 34 -20 46 -36 12 -17 26 -27 31 -24 6 3
13 -3 16 -15 3 -12 16 -24 32 -27 14 -4 33 -16 42 -26 15 -20 20 -15 128 126
62 80 116 146 120 146 4 0 11 -3 15 -7 4 -5 11 -9 14 -9 29 -6 51 -18 46 -25
-3 -5 2 -9 11 -9 9 0 26 -10 37 -22 11 -13 17 -18 14 -12 -6 12 30 12 41 -1 5
-4 2 -5 -4 -1 -8 4 -13 1 -13 -8 0 -8 9 -20 20 -26 11 -6 20 -17 20 -24 0 -14
44 -31 67 -27 7 1 10 -4 8 -11 -3 -7 3 -18 14 -25 17 -10 27 0 102 103 82 112
109 135 109 93 0 -18 4 -20 25 -15 18 5 23 3 19 -8 -3 -9 6 -19 25 -27 17 -8
31 -20 31 -27 0 -7 4 -11 9 -8 5 4 11 1 13 -5 2 -6 15 -12 29 -12 20 -2 25 -6
21 -21 -4 -16 -2 -17 17 -6 20 10 22 10 17 -7 -4 -13 2 -23 18 -33 l24 -15
-90 -127 c-50 -71 -86 -132 -83 -139 4 -6 18 -9 30 -7 16 4 22 1 18 -9 -3 -7
0 -13 5 -13 6 0 14 -9 17 -21 4 -11 12 -18 18 -16 7 2 20 -7 30 -20 10 -12 21
-22 25 -22 20 3 32 -2 32 -14 0 -7 10 -13 21 -14 12 -1 28 -11 35 -22 8 -11
21 -18 29 -15 9 4 15 0 15 -10 0 -9 5 -16 11 -16 5 0 7 -4 4 -10 -3 -5 6 -21
21 -35 15 -14 22 -25 15 -25 -6 0 -11 -5 -11 -11 0 -6 -14 -30 -30 -55 -22
-31 -27 -44 -17 -44 8 0 18 -11 21 -25 4 -16 11 -22 20 -19 8 3 23 -4 33 -15
9 -12 22 -21 28 -21 5 0 21 -12 34 -25 13 -14 32 -25 42 -25 21 0 25 -15 8
-26 -8 -5 -7 -9 4 -15 9 -6 13 -17 10 -30 -7 -26 13 -40 45 -32 17 4 21 2 16
-10 -4 -11 4 -16 35 -19 35 -3 44 1 77 34 20 21 45 40 56 44 10 3 18 8 18 12
0 4 30 46 68 94 59 77 93 129 181 282 61 106 273 396 289 396 4 0 16 14 26 30
9 17 22 27 28 24 6 -4 6 -9 1 -13 -6 -3 -12 -16 -15 -28 -5 -18 0 -22 30 -28
22 -4 38 -2 42 5 4 6 7 -4 7 -22 0 -17 5 -34 12 -36 8 -3 21 -13 29 -23 12
-13 30 -19 62 -19 l45 -1 -27 -20 c-16 -11 -28 -24 -28 -29 0 -5 -23 -41 -50
-81 -47 -68 -61 -111 -41 -123 5 -3 26 15 47 40 70 86 140 149 169 152 36 5
112 86 194 207 21 31 54 74 74 98 110 128 179 214 186 232 5 11 50 76 101 145
51 69 97 135 103 147 11 24 39 41 31 19 -6 -15 23 -49 35 -41 8 4 30 -14 60
-50 9 -12 24 -15 50 -12 32 3 37 1 36 -17 0 -12 -28 -54 -62 -94 -58 -67 -79
-112 -52 -112 7 0 45 30 85 66 77 68 99 108 72 128 -13 10 -5 23 55 86 39 40
67 65 64 56 -7 -18 -6 -18 18 -2 14 9 25 12 25 7 0 -6 -8 -14 -17 -20 -10 -5
-15 -13 -11 -16 4 -4 17 5 29 19 13 15 29 24 36 22 7 -3 19 1 27 9 18 18 32
19 42 3 4 -6 3 -8 -4 -4 -6 3 -13 2 -16 -3 -4 -5 8 -17 25 -25 30 -15 33 -15
45 2 7 9 11 34 9 55 -4 40 1 46 19 22 9 -12 35 22 141 182 72 109 184 267 250
353 175 225 207 269 200 280 -3 6 0 10 7 10 17 0 93 110 93 135 0 11 10 30 23
43 26 26 20 46 -11 36 -12 -3 -19 -3 -15 1 4 5 3 14 -3 22 -9 10 -7 13 10 13
12 0 20 4 16 10 -3 5 -12 7 -19 4 -15 -6 -32 29 -22 44 5 9 -73 7 -102 -2 -13
-4 -18 0 -18 15 0 18 5 20 32 14 18 -3 35 -1 39 5 14 23 -87 19 -106 -4 -15
-19 -16 -18 -14 20 2 34 6 39 25 36 15 -3 21 1 18 10 -3 7 -14 13 -26 13 -11
0 -24 4 -28 8 -4 4 -16 7 -26 7 -11 0 -16 5 -13 10 4 6 11 7 17 4 6 -4 8 -2 4
4 -3 6 -2 13 4 17 5 3 10 13 10 22 0 22 85 158 140 223 58 70 130 172 130 187
0 12 -70 58 -82 55 -5 -1 -8 7 -8 19 0 19 -4 20 -40 14 -22 -4 -40 -3 -40 2 0
16 24 33 46 33 26 0 36 11 25 28 -4 7 -17 9 -36 4 -24 -7 -33 -4 -52 16 -13
14 -23 21 -23 15 0 -5 5 -14 12 -21 6 -6 8 -15 3 -19 -4 -5 -10 -2 -12 5 -3 6
-9 10 -14 6 -5 -3 -8 -2 -7 3 5 17 -24 54 -38 49 -10 -4 -14 3 -14 29 0 24 -5
35 -15 35 -8 0 -15 -9 -15 -20 0 -16 -5 -19 -28 -14 -25 5 -33 -1 -70 -48 -23
-29 -57 -64 -76 -78 -19 -14 -51 -53 -72 -88 -32 -56 -114 -165 -183 -244 -13
-14 -30 -24 -37 -21 -8 3 -14 1 -14 -5 0 -6 -13 -13 -29 -17 -20 -4 -28 -11
-24 -21 6 -16 -8 -19 -23 -5 -5 6 -27 -17 -58 -62 -56 -82 -332 -445 -445
-586 -42 -52 -93 -117 -115 -145 -48 -63 -62 -78 -47 -48 10 18 9 22 -4 22 -9
0 -18 6 -21 14 -3 8 -14 16 -25 19 -11 3 -19 14 -19 26 0 14 -6 21 -19 21 -11
0 -23 5 -27 11 -4 7 -21 9 -44 5 -28 -4 -37 -2 -37 9 0 8 4 12 9 9 4 -3 16 0
25 5 16 9 16 10 -4 11 -16 0 -21 4 -17 15 5 11 -2 15 -26 15 -24 0 -31 4 -26
15 3 9 0 15 -9 15 -8 0 -15 -4 -15 -10 0 -5 -11 2 -25 16 -14 14 -25 29 -25
34 0 6 -6 10 -12 10 -13 0 -48 -20 -36 -20 3 0 -6 -13 -20 -28 -15 -16 -48
-59 -75 -98 -26 -38 -69 -97 -95 -131 -26 -33 -58 -80 -72 -104 -65 -110 -157
-231 -190 -249 -14 -7 -23 -6 -34 6 -13 13 -16 13 -16 1 0 -10 -8 -13 -25 -9
l-24 4 21 17 c21 17 21 18 -17 19 -21 1 -42 7 -46 13 -4 6 -12 8 -18 5 -6 -4
-11 -2 -11 3 0 6 5 11 11 11 8 0 8 5 -1 15 -7 8 -18 14 -24 14 -17 -3 -66 19
-66 30 0 5 8 11 18 14 16 4 16 5 -2 12 -11 5 -26 4 -36 -3 -16 -10 -18 -8 -13
21 6 39 2 36 -70 -65 -43 -61 -57 -75 -66 -65 -19 24 0 77 50 135 31 35 38 62
15 62 -20 0 -87 -47 -117 -82 l-26 -31 -21 21 c-11 11 -23 18 -26 14 -3 -3 -6
0 -6 6 0 17 -37 24 -59 12 -17 -9 -20 -8 -15 5 4 8 11 15 18 16 6 0 2 4 -9 9
-14 5 -24 3 -32 -7 -6 -8 -13 -10 -16 -6 -3 5 42 71 99 147 57 77 104 140 104
142 0 1 -11 1 -25 -1 -16 -1 -24 2 -22 9 2 6 12 10 21 10 11 -1 19 11 27 40 6
22 20 57 30 77 10 20 19 39 19 43 0 14 -54 4 -81 -15 -36 -26 -53 -56 -51 -91
2 -23 -2 -28 -22 -28 -13 0 -26 7 -30 15 -3 8 -1 15 4 15 5 0 7 7 3 16 -4 11
-9 12 -16 5 -15 -15 -27 -14 -21 2 3 8 -4 13 -17 14 -11 1 -33 15 -48 31 -16
16 -35 28 -45 26 -9 -1 -14 2 -10 7 3 5 -3 9 -13 9 -17 1 -17 2 1 15 11 8 16
15 12 15 -4 0 22 38 58 84 70 90 80 116 44 116 -19 0 -20 2 -8 10 13 8 12 10
-2 10 -10 0 -18 5 -18 10 0 13 -27 13 -32 -1 -2 -5 -14 1 -27 15 -20 21 -21
26 -8 26 9 0 17 -5 17 -11 0 -5 5 -7 11 -3 15 9 -3 25 -30 27 -12 1 -20 6 -17
13 3 7 -2 18 -10 24 -10 9 -14 9 -14 1 0 -6 -5 -11 -11 -11 -5 0 -7 5 -3 12 5
8 2 9 -9 5 -17 -6 -42 24 -30 37 3 3 -5 6 -18 6 -17 0 -20 3 -11 9 10 6 6 10
-15 15 -27 7 -27 8 -9 22 11 8 17 14 13 14 -4 0 84 114 196 253 260 322 257
317 200 317 -13 0 -26 7 -29 15 -3 8 -14 17 -23 20 -16 5 -41 44 -41 64 0 12
66 108 115 166 23 28 48 60 54 73 19 37 -13 28 -63 -18z m-166 -220 c0 -5 -4
-10 -9 -10 -6 0 -13 5 -16 10 -3 6 1 10 9 10 9 0 16 -4 16 -10z m-260 -714 c0
-3 -4 -8 -10 -11 -5 -3 -10 -1 -10 4 0 6 5 11 10 11 6 0 10 -2 10 -4z m45 -46
c3 -5 1 -10 -4 -10 -6 0 -11 5 -11 10 0 6 2 10 4 10 3 0 8 -4 11 -10z m2885
-24 c0 -3 -4 -8 -10 -11 -5 -3 -10 -1 -10 4 0 6 5 11 10 11 6 0 10 -2 10 -4z
m-2845 -25 c3 -5 1 -12 -5 -16 -5 -3 -10 1 -10 9 0 18 6 21 15 7z m2875 -15
c0 -4 -8 -6 -18 -4 -10 3 -23 -1 -30 -9 -7 -7 -17 -13 -22 -13 -6 0 -2 8 8 18
17 19 62 25 62 8z m166 -103 c-7 -7 -26 7 -26 19 0 6 6 6 15 -2 9 -7 13 -15
11 -17z m9 -33 c3 -5 1 -10 -4 -10 -6 0 -11 5 -11 10 0 6 2 10 4 10 3 0 8 -4
11 -10z m50 -50 c6 0 2 -5 -7 -11 -12 -7 -24 -6 -38 1 -27 15 -25 19 8 15 15
-2 32 -4 37 -5z m-1609 -358 c-18 -16 -18 -16 -6 6 6 13 14 21 18 18 3 -4 -2
-14 -12 -24z m80 -77 c-11 -8 -27 -15 -35 -15 -13 1 -12 4 3 15 11 8 27 15 35
15 13 -1 12 -4 -3 -15z m-1331 -215 c3 -5 1 -10 -4 -10 -6 0 -11 5 -11 10 0 6
2 10 4 10 3 0 8 -4 11 -10z m315 -40 c0 -5 -4 -10 -10 -10 -5 0 -10 5 -10 10
0 6 5 10 10 10 6 0 10 -4 10 -10z m-1920 -1024 c0 -11 -19 -15 -25 -6 -3 5 1
10 9 10 9 0 16 -2 16 -4z m1235 -676 c3 -5 2 -10 -4 -10 -5 0 -13 5 -16 10 -3
6 -2 10 4 10 5 0 13 -4 16 -10z m225 -180 c0 -5 -2 -10 -4 -10 -3 0 -8 5 -11
10 -3 6 -1 10 4 10 6 0 11 -4 11 -10z"/>
<path d="M1843 4272 c-117 -147 -358 -451 -538 -677 -179 -225 -325 -416 -325
-423 0 -9 6 -12 16 -8 12 5 15 2 10 -9 -3 -9 -2 -13 3 -10 6 3 13 0 18 -8 4
-7 21 -21 36 -30 23 -15 31 -16 43 -6 8 6 18 8 22 4 4 -4 0 -10 -8 -13 -43
-15 -119 -134 -107 -166 11 -27 25 -18 61 38 19 30 39 56 44 60 16 10 81 -6
76 -19 -3 -6 2 -12 11 -13 8 -1 22 -3 30 -4 8 -1 15 -7 15 -15 0 -7 7 -13 15
-13 8 0 15 -6 15 -14 0 -8 9 -18 20 -21 11 -4 18 -11 15 -16 -4 -5 -2 -9 4 -9
5 0 243 293 528 652 648 815 589 738 563 738 -11 0 -20 5 -20 10 0 6 7 10 15
10 8 0 15 3 15 6 0 12 -34 33 -52 34 -11 0 -18 8 -18 20 0 19 -1 20 -25 4 -23
-15 -25 -15 -31 0 -4 11 -16 15 -33 14 -20 -2 -25 1 -23 15 2 9 -2 17 -9 17
-8 0 -9 4 0 13 8 10 7 21 -2 40 -13 28 -27 36 -27 15 0 -7 -13 2 -29 20 -29
31 -51 41 -51 24 0 -5 -7 -9 -15 -9 -8 0 -12 4 -9 9 3 4 -5 8 -18 8 -18 -1
-69 -59 -235 -268z m507 44 c0 -11 -19 -15 -25 -6 -3 5 1 10 9 10 9 0 16 -2
16 -4z m46 -53 c-10 -11 -19 -7 -22 10 -2 15 0 16 12 6 8 -6 12 -14 10 -16z"/>
<path d="M2180 4526 c0 -9 5 -16 10 -16 6 0 10 4 10 9 0 6 -4 13 -10 16 -5 3
-10 -1 -10 -9z"/>
<path d="M4381 4511 c-10 -6 -10 -10 -1 -16 13 -8 24 -1 19 14 -3 6 -10 7 -18
2z"/>
<path d="M5846 4398 c-37 -43 -47 -78 -22 -78 17 0 86 83 86 104 0 28 -28 17
-64 -26z"/>
<path d="M4623 4395 c-3 -9 -3 -18 -1 -21 3 -3 8 4 11 16 6 23 -1 27 -10 5z"/>
<path d="M3068 4363 c7 -3 16 -2 19 1 4 3 -2 6 -13 5 -11 0 -14 -3 -6 -6z"/>
<path d="M4328 4256 c-53 -64 -76 -106 -58 -106 4 0 16 12 26 28 9 15 35 48
57 74 21 26 37 52 35 59 -2 7 -29 -17 -60 -55z"/>
<path d="M5985 3861 c-50 -31 -118 -108 -112 -125 11 -27 48 -18 84 22 57 60
90 122 66 122 -5 0 -21 -9 -38 -19z"/>
<path d="M2994 3820 c-37 -15 -65 -60 -62 -99 4 -45 34 -56 44 -17 3 14 21 45
40 68 19 24 34 46 34 51 0 9 -29 8 -56 -3z"/>
<path d="M4489 3763 c-45 -47 -69 -83 -69 -102 0 -8 29 16 65 54 36 37 65 71
65 76 0 20 -28 7 -61 -28z"/>
<path d="M4374 3378 c-62 -49 -101 -111 -85 -137 13 -20 37 -2 74 52 30 45 55
107 44 107 -3 0 -17 -10 -33 -22z"/>
<path d="M3548 2915 c-36 -20 -120 -124 -116 -144 7 -37 36 -20 85 51 42 62
69 109 60 108 -1 -1 -14 -7 -29 -15z"/>
<path d="M3400 2732 c0 -4 9 -13 20 -20 11 -7 20 -9 20 -4 0 4 -9 13 -20 20
-11 7 -20 9 -20 4z"/>
<path d="M3526 2647 c3 -10 9 -15 12 -12 3 3 0 11 -7 18 -10 9 -11 8 -5 -6z"/>
<path d="M1216 2348 c-26 -29 -36 -51 -36 -74 0 -23 4 -32 13 -28 19 9 97 112
97 129 0 29 -39 15 -74 -27z"/>
<path d="M5010 2270 c-13 -8 -12 -10 3 -10 9 0 17 5 17 10 0 12 -1 12 -20 0z"/>
<path d="M2261 1749 c-49 -53 -154 -259 -132 -259 22 0 181 229 181 260 0 26
-24 26 -49 -1z"/>
<path d="M1751 1605 c-42 -39 -64 -81 -59 -115 3 -19 13 -12 81 54 43 42 75
81 72 86 -13 21 -56 9 -94 -25z"/>
<path d="M1138 1500 c-58 -72 -114 -160 -105 -160 3 0 24 26 48 58 24 31 65
82 91 113 26 31 48 59 48 63 0 21 -28 -4 -82 -74z"/>
<path d="M2425 1220 c-42 -17 -138 -139 -155 -198 -13 -47 3 -39 54 26 25 33
69 81 100 109 41 38 52 53 43 62 -13 13 -15 13 -42 1z"/>
<path d="M2690 895 c0 -8 2 -15 4 -15 2 0 6 7 10 15 3 8 1 15 -4 15 -6 0 -10
-7 -10 -15z"/>
<path d="M2698 773 c-35 -41 -129 -213 -126 -230 4 -15 11 -11 45 24 53 54
137 189 129 208 -7 20 -29 19 -48 -2z"/>
</g>
</svg>
